<svg width="2147" height="1595" viewBox="0 0 2147 1595" fill="none" xmlns="http://www.w3.org/2000/svg">
<g id="Design-File 1">
<g id="g10">
<g id="g12">
<g id="g14">
<g id="bg">
<path id="path22" d="M1339.96 145.086C1218.73 85.5023 1123.54 124.666 1042.63 175.228C815.962 316.869 737.735 257.152 516.916 280.855C254.015 309.08 235.387 521.266 316.166 673.967C349.631 737.23 389.573 801.963 374.214 876.477C362.237 934.604 311.149 989.147 280.753 1040.42C169.902 1227.4 266.603 1473.39 612.643 1472.64C817.428 1472.2 925.639 1381.14 1080 1262.08C1225.6 1149.79 1377.79 1129.85 1558.05 1122.98C1987.96 1106.57 2253.56 641.959 1554.17 389.698C1444.7 350.216 1437.11 192.84 1339.96 145.086Z" fill="#F5FCFF"/>
</g>
<g id="g24">
<path id="path26" d="M1256.44 439.574C1256.44 439.574 1294.68 468.982 1304.13 490.034C1304.13 490.034 1267.25 497.894 1238.1 460.225C1238.1 460.225 1196.04 425.42 1194.29 406.11C1194.29 406.11 1232.5 419.688 1256.44 439.574Z" fill="#4FA9F3"/>
</g>
<g id="g28">
<path id="path30" d="M1194.44 407.75L1211.91 372.846C1211.91 372.846 1214.38 366.821 1220.61 363.233C1220.61 363.233 1267.4 329.657 1276.09 320.616C1276.09 320.616 1285.36 328.94 1251.32 357.351L1246.97 361.511L1274.78 353.332C1274.78 353.332 1276.09 359.502 1265.8 364.237L1253.2 371.125L1261.31 380.595C1261.31 380.595 1265.51 385.044 1262.76 391.787L1255.52 419.91C1255.52 419.91 1253.79 421.368 1252.47 415.698C1252.47 415.698 1250.79 424.675 1242.32 411.796C1242.32 411.796 1221.65 432.035 1219.22 433.3L1206.1 443.651L1187.17 417.432L1194.44 407.75Z" fill="#FEC8CA"/>
</g>
<g id="g32">
<path id="path34" d="M1219.56 402.697C1219.56 402.697 1217.38 405.499 1220.86 404.96C1224.11 404.459 1234.7 394.8 1238.17 384.336C1238.69 382.775 1239.6 381.374 1240.89 380.34L1252.1 371.328L1239.15 378.766C1239.15 378.766 1236.85 379.843 1235.88 382.646C1234.73 385.969 1228.26 398.924 1219.56 402.697Z" fill="#FFA9AA"/>
</g>
<g id="g36">
<path id="path38" d="M1255.01 354.22C1255.01 354.22 1249.31 358.816 1247.48 361.323L1231.24 367.312C1231.24 367.312 1253.11 354.708 1255.01 354.22Z" fill="#FFA9AA"/>
</g>
<g id="g40">
<path id="path42" d="M1238.34 388.482C1238.34 388.482 1239.33 408.022 1242.32 411.797C1242.32 411.797 1246.01 418.705 1249.52 419.401C1249.52 419.401 1252.47 420.236 1253.25 413.552L1258.03 387.089L1251.49 409.93C1251.49 409.93 1250.44 414.595 1249.73 415.152C1249.03 415.71 1247.34 415.152 1248.47 408.955L1249.45 381.519L1246.29 410.488C1246.29 410.488 1244.04 413.272 1242.7 405.752L1238.34 388.482Z" fill="#FFA9AA"/>
</g>
<g id="g44">
<path id="path46" d="M1264.83 359.202C1264.83 359.202 1271.45 357.739 1274.78 353.332L1263.53 356.632C1263.53 356.632 1263.75 358.452 1264.83 359.202Z" fill="#F86934"/>
</g>
<g id="g48">
<path id="path50" d="M1267.84 327.764C1267.84 327.764 1268.77 329.573 1269.94 329.642C1271.11 329.71 1276.01 323.974 1275.56 321.175L1267.84 327.764Z" fill="#F86934"/>
</g>
<g id="g52">
<path id="path54" d="M1257.78 411.848C1257.78 411.848 1255.1 409.821 1254.2 412.511C1254.2 412.511 1253.33 416.197 1255.57 420.346L1257.78 411.848Z" fill="#F86934"/>
</g>
<g id="g56">
<path id="path58" d="M1251.58 408.979C1251.58 408.979 1249.44 407.276 1248.65 409.448C1248.65 409.448 1247.87 412.432 1249.61 415.852L1251.58 408.979Z" fill="#F86934"/>
</g>
<g id="g60">
<path id="path62" d="M1246.95 404.065C1246.95 404.065 1244.57 402.721 1244.14 404.99C1244.14 404.99 1243.85 408.059 1246.12 411.16L1246.95 404.065Z" fill="#F86934"/>
</g>
<g id="g64">
<path id="path66" d="M1232 421.848C1232 421.848 1204.35 419.068 1194.44 407.75L1187.17 417.431C1189.24 419.905 1206.1 443.651 1206.1 443.651L1222.19 431.055L1232 421.848Z" fill="#FFA9AA"/>
</g>
<g id="g68">
<path id="path70" d="M991.919 379.634L1037.05 388.274C1037.05 388.274 1047.77 389.362 1062.34 409.923C1076.91 430.483 1126.88 495.995 1126.88 495.995L1194.29 406.109C1194.29 406.109 1255.2 479.958 1304.13 490.035C1304.13 490.035 1196.93 620.696 1136.88 615.288C1136.88 615.288 1111.22 615.288 1091.02 592.036C1070.83 568.785 1017.87 475.778 1011.87 457.934C1005.86 440.09 991.919 379.634 991.919 379.634Z" fill="#AAD2F8"/>
</g>
<g id="g72">
<path id="path74" d="M1285.52 511.451C1285.38 511.451 1285.24 511.427 1285.1 511.38C1214.43 486.296 1184.65 422.49 1184.36 421.848C1184.07 421.233 1184.35 420.507 1184.97 420.229C1185.6 419.95 1186.33 420.225 1186.61 420.841C1186.9 421.472 1216.28 484.351 1285.94 509.074C1286.58 509.302 1286.91 510.004 1286.68 510.639C1286.5 511.14 1286.03 511.451 1285.52 511.451Z" fill="#D7E8FB"/>
</g>
<g id="g76">
<path id="path78" d="M1024.75 248.629C1024.75 248.629 1037.94 258.909 1034.39 272.708L1016.91 262.184L1024.75 248.629Z" fill="#DC330E"/>
</g>
<g id="g80">
<path id="path82" d="M1022.13 255.62C1022.13 255.62 1034.49 268.159 1044.2 289.995L1063.26 300.247L1051.21 306.629C1051.21 306.629 1059.63 334.207 1044.25 348.616C1044.25 348.616 1035.54 356.964 1016.66 353.579C1016.66 353.579 1009.21 373.679 1014.08 384.747C1014.08 384.747 1016.3 395.119 1032.27 403.502C1032.27 403.502 981.041 453.421 936.037 388.121C936.037 388.121 947.94 383.075 965.165 364.194C965.165 364.194 975.848 350.037 976.546 341.683C976.546 341.683 955.547 339.19 951.906 324.374C951.906 324.374 950.438 319.146 950.747 314.84C950.747 314.84 936.255 242.179 1022.13 255.62" fill="#FFCBCD"/>
</g>
<g id="g84">
<path id="path86" d="M1027.12 261.451L1028.95 263.848C1028.95 263.848 1020.64 288.405 991.407 300.135L985.392 294.474L1001.75 280.739L1027.12 261.451Z" fill="#FFA0A0"/>
</g>
<g id="g88">
<path id="path90" d="M1022.03 237.441C1022.03 237.441 1051.03 263.462 988.751 294.699C988.751 294.699 997.621 311.609 997.147 322.06C997.147 322.06 975.273 303.171 970.767 301.499C970.767 301.499 951.655 301.297 950.768 316.832C950.768 316.832 935.007 299.763 943.159 273.001C943.159 273.001 951.049 255.721 967.611 251.087C984.171 246.452 1015.24 246.599 1022.03 237.441Z" fill="#F8672F"/>
</g>
<g id="g92">
<path id="path94" d="M957.329 239.05C957.329 239.05 952.532 223.721 930.187 216.375C907.842 209.028 908.03 220.826 889.199 218.548C870.367 216.269 880.847 192.827 875.606 173.885C870.362 154.944 867.261 147.068 837.473 149.975L833.546 156.789C833.546 156.789 862.143 154.29 866.483 171.913C870.822 189.535 868.227 193.3 871.079 202.049C873.93 210.796 876.619 221.682 893.826 224.447C893.826 224.447 875.229 227.958 867.672 200.701C867.672 200.701 865.688 191.253 864.727 181.128C863.768 171.003 858.892 157.958 831.016 161.231L784.126 247.629C784.126 247.629 797.971 265.688 822.069 269.495C846.168 273.303 843.961 263.653 861.241 265.932C878.522 268.209 869.675 277.685 890.667 279.858C911.658 282.031 911.409 264.029 919.856 257.156C928.303 250.282 930.828 241.514 952.195 251.063L957.329 239.05Z" fill="#F8672F"/>
</g>
<g id="g96">
<path id="path98" d="M961.163 324.907C960.716 324.741 960.471 324.256 960.614 323.799C960.676 323.602 962.172 318.969 967.062 316.767C971.108 314.948 976.184 315.355 982.147 317.98C982.605 318.182 982.813 318.713 982.609 319.167C982.405 319.621 981.87 319.81 981.409 319.624C975.948 317.218 971.367 316.809 967.814 318.408C963.658 320.276 962.363 324.291 962.351 324.33C962.202 324.805 961.693 325.072 961.214 324.925C961.197 324.919 961.179 324.914 961.163 324.907Z" fill="#FFA1A2"/>
</g>
<g id="g100">
<path id="path102" d="M1013.88 313.283C1012.19 317.745 1007.17 320.007 1002.67 318.336C998.166 316.667 995.88 311.696 997.567 307.234C999.254 302.772 1004.27 300.51 1008.78 302.179C1013.28 303.85 1015.57 308.822 1013.88 313.283Z" fill="#FFA1A2"/>
</g>
<g id="g104">
<path id="path106" d="M1019.47 318.037L1041.83 312.312C1041.83 312.312 1039.32 331.275 1029.05 328.668C1020.9 326.598 1019.47 318.037 1019.47 318.037Z" fill="white"/>
</g>
<g id="g108">
<path id="path110" d="M1038.96 295.592C1038.96 295.592 1033.08 287.963 1024.31 288.99C1024.31 288.99 1018.98 290.258 1015.01 293.843C1015.01 293.843 1018.34 298.498 1025.72 300.397C1033.11 302.297 1038.96 295.592 1038.96 295.592Z" fill="white"/>
</g>
<g id="g112">
<path id="path114" d="M1024.31 288.991C1024.31 288.991 1022.32 289.468 1019.87 290.653L1017.56 287.611L1018.38 291.44C1017.96 291.677 1017.55 291.931 1017.13 292.207L1013.23 290.435L1016.1 292.948C1015.73 293.229 1015.36 293.524 1015.01 293.842C1015.01 293.842 1015.17 294.06 1015.48 294.408C1017.34 293.163 1022.6 289.902 1026.83 289.752C1026.83 289.752 1024.97 294.198 1025.9 300.431C1033.2 302.177 1038.96 295.593 1038.96 295.593C1038.96 295.593 1033.08 287.963 1024.31 288.991" fill="#653A35"/>
</g>
<g id="g116">
<path id="path118" d="M1028.23 280.587C1028.23 280.587 1014.04 284.213 1011.39 285.773C1011.39 285.773 1012.17 281.488 1018.32 279.2C1023.79 277.165 1028.23 280.587 1028.23 280.587Z" fill="#653A35"/>
</g>
<g id="g120">
<path id="path122" d="M998.548 345.736C998.548 345.736 1001.15 362.07 1012.48 372.724C1012.48 372.724 1013.49 361.982 1016.66 353.579L998.548 345.736Z" fill="#FF9E9D"/>
</g>
<g id="g124">
<path id="path126" d="M976.546 341.683C976.546 341.683 976.397 343.95 974.943 348.156C974.943 348.156 979.859 346.556 982.51 340.355L976.546 341.683Z" fill="#FF9E9D"/>
</g>
<g id="g128">
<path id="path130" d="M980.742 372.905L964.787 375.779C963.478 376.014 962.143 375.541 961.283 374.538L950.792 362.288C949.932 361.283 949.679 359.899 950.127 358.661L955.591 343.536C956.039 342.296 957.121 341.388 958.43 341.152L974.384 338.278C975.692 338.043 977.029 338.516 977.889 339.521L988.378 351.77C989.24 352.774 989.492 354.157 989.044 355.398L983.58 370.521C983.132 371.761 982.05 372.67 980.742 372.905ZM986.23 373.076L992.729 355.088C993.263 353.614 992.959 351.968 991.937 350.775L979.46 336.206C978.438 335.011 976.849 334.447 975.292 334.728L956.317 338.146C954.762 338.427 953.475 339.507 952.942 340.981L946.442 358.969C945.909 360.444 946.211 362.089 947.234 363.284L959.71 377.853C960.733 379.046 962.322 379.61 963.878 379.329L982.854 375.912C984.41 375.631 985.697 374.55 986.23 373.076" fill="white"/>
</g>
<g id="g132">
<path id="path134" d="M966.07 251.563C966.07 251.563 940.493 269.628 956.984 305.35C956.984 305.35 959.21 303.999 959.939 303.83C959.939 303.83 942.891 269.973 972.182 250.782C972.182 250.782 949.651 267.693 965.484 301.96L968.602 301.585C968.602 301.585 951.271 266.773 979.368 248.741L966.07 251.563Z" fill="#DF3916"/>
</g>
<g id="g136">
<path id="path138" d="M933.8 230.325C924.581 228.932 910.652 231.974 903.17 233.912C896.208 235.715 889.314 236.088 882.651 234.933C878.337 234.203 874.234 232.905 870.456 231.073C861.218 226.591 859.244 220.405 856.51 211.844C854.916 206.853 853.111 201.198 849.53 194.828C840.244 178.319 827.498 171.978 825.632 171.119L824.192 173.783L824.175 173.823C824.308 173.881 837.505 179.737 846.83 196.32C850.26 202.415 852.016 207.915 853.565 212.767C856.418 221.704 858.672 228.763 869.098 233.822C873.14 235.782 877.525 237.171 882.132 237.95C882.414 237.997 882.697 238.042 882.979 238.085C889.803 239.116 896.855 238.709 903.951 236.874C909.789 235.361 924.341 231.992 933.334 233.35C945.328 235.163 952.724 237.788 957.453 246.466L960.173 245.011C954.855 235.257 946.475 232.24 933.8 230.325Z" fill="#DF3916"/>
</g>
<g id="g140">
<path id="path142" d="M904.452 241.097C903.317 241.424 902.422 241.681 901.869 241.803C901.123 241.966 900.296 242.184 899.374 242.429C894.002 243.854 885.016 246.238 868.562 242.939C855.926 240.406 850.628 229.65 845.503 219.247C843.091 214.352 840.599 209.289 837.38 205.2C828.286 193.645 818.65 188.768 816.578 187.808L815.125 190.516C816.441 191.119 826.052 195.785 834.943 207.082C837.963 210.918 840.277 215.616 842.726 220.588C848.179 231.659 853.818 243.107 867.949 245.939C869.577 246.266 871.133 246.537 872.625 246.763C886.864 248.914 895.074 246.738 900.174 245.386C901.048 245.154 901.83 244.946 902.537 244.791C903.188 244.647 904.126 244.379 905.314 244.037C914.148 241.497 937.616 234.75 954.173 247.67L956.086 245.267C938.282 231.376 913.706 238.439 904.452 241.097Z" fill="#DF3916"/>
</g>
<g id="g144">
<path id="path146" d="M957.864 236.096L962.937 246.659L950.387 254.278L945.482 251.262L957.864 236.096Z" fill="#FDD385"/>
</g>
<g id="g148">
<path id="path150" d="M954.778 257.853L948.996 254.361L963.814 245.937L966.07 251.563L954.778 257.853Z" fill="#E5A43B"/>
</g>
<g id="g152">
<path id="path154" d="M1041.12 630.676C1041.12 630.676 1130.45 647.657 1166.54 662.852L1195.42 682.515L1044.73 697.71L1041.12 630.676Z" fill="#3B34A3"/>
</g>
<g id="g164">
<path id="path166" d="M861.818 729.935C861.818 729.935 1471.8 545.115 1580.42 694.495C1580.42 694.495 1655.37 774.706 1415.48 955.263C1175.32 1136.03 1026.69 1165.06 869.008 1155.97C869.008 1155.97 759.614 1088.22 759.324 957.368C759.025 822.199 838.879 749.041 861.818 729.935Z" fill="#F3F8FC"/>
</g>
<g id="g216">
<path id="path218" d="M928.825 1043.56C929.054 1046.04 927.209 1048.24 924.704 1048.47C922.198 1048.69 919.98 1046.87 919.751 1044.38C919.521 1041.9 921.366 1039.71 923.873 1039.48C926.378 1039.25 928.595 1041.08 928.825 1043.56Z" fill="#80BEFA"/>
</g>
<g id="g228">
<path id="path230" d="M1060.03 684.854C1060.49 685.074 1060.93 685.291 1061.38 685.51L1084.73 679.132L1083.75 673.19C1083.75 673.19 980.409 609.329 880.87 642.923C880.87 642.923 874.368 643.993 867.018 654.7C897.252 648.662 969.988 641.629 1060.03 684.854Z" fill="#DCE9F9"/>
</g>
<g id="g260">
<path id="path262" d="M891.823 397.912C901.79 472.379 922.068 543.375 935.867 618.393C935.867 618.393 997.555 573.099 1049.31 562.225L1056.1 484.437L1077.86 465.066L1034.02 387.684L1014.26 384.169C1014.26 384.169 973.36 403.812 951.837 373.39C951.837 373.39 888.455 372.742 891.823 397.912Z" fill="#6067CF"/>
</g>
<g id="g264">
<path id="path266" d="M942.538 613.704L934.821 612.88Z" fill="#7D87E2"/>
</g>
<g id="g268">
<path id="path270" d="M900.837 382.819C899.035 383.866 897.431 385.031 896.091 386.323L1042.08 401.901L1039.66 397.633L900.837 382.819Z" fill="#7D87E2"/>
</g>
<g id="g272">
<path id="path274" d="M1052.39 420.111L1049.98 415.843L891.977 398.983C892.16 400.344 892.367 401.697 892.558 403.056" fill="#7D87E2"/>
</g>
<g id="g276">
<path id="path278" d="M895.178 420.445L1062.71 438.323L1060.29 434.055L894.53 416.366C894.742 417.727 894.96 419.087 895.178 420.445Z" fill="#7D87E2"/>
</g>
<g id="g280">
<path id="path282" d="M898.127 437.869L1073.03 456.533L1070.61 452.264L897.417 433.783C897.654 435.144 897.884 436.509 898.127 437.869Z" fill="#7D87E2"/>
</g>
<g id="g284">
<path id="path286" d="M901.384 455.327L1068.74 473.185L1072.76 469.603L900.597 451.231C900.858 452.598 901.119 453.963 901.384 455.327Z" fill="#7D87E2"/>
</g>
<g id="g288">
<path id="path290" d="M904.888 472.81L1055.71 488.903L1056.06 484.93L904.042 468.709C904.319 470.077 904.607 471.443 904.888 472.81Z" fill="#7D87E2"/>
</g>
<g id="g292">
<path id="path294" d="M908.571 490.313L1054.23 505.856L1054.58 501.883L907.695 486.208C907.986 487.576 908.277 488.945 908.571 490.313Z" fill="#7D87E2"/>
</g>
<g id="g296">
<path id="path298" d="M912.382 507.829L1052.75 522.807L1053.1 518.834L911.484 503.723C911.785 505.091 912.08 506.46 912.382 507.829Z" fill="#7D87E2"/>
</g>
<g id="g300">
<path id="path302" d="M916.276 525.354L1051.27 539.759L1051.62 535.787L915.359 521.245C915.664 522.614 915.97 523.985 916.276 525.354Z" fill="#7D87E2"/>
</g>
<g id="g304">
<path id="path306" d="M920.18 542.88L1049.79 556.712L1050.14 552.739L919.266 538.772C919.572 540.141 919.876 541.511 920.18 542.88Z" fill="#7D87E2"/>
</g>
<g id="g308">
<path id="path310" d="M924.046 560.402L1021.33 570.783C1024.15 569.686 1026.99 568.647 1029.82 567.679L923.144 556.295C923.444 557.664 923.746 559.032 924.046 560.402Z" fill="#7D87E2"/>
</g>
<g id="g312">
<path id="path314" d="M927.812 577.913L990.921 584.648C993.075 583.533 995.261 582.427 997.474 581.337L926.939 573.81C927.231 575.178 927.523 576.544 927.812 577.913Z" fill="#7D87E2"/>
</g>
<g id="g316">
<path id="path318" d="M931.415 595.408L965.344 599.028C967.186 597.913 969.092 596.777 971.054 595.627L930.595 591.31C930.873 592.672 931.14 594.043 931.415 595.408Z" fill="#7D87E2"/>
</g>
<g id="g320">
<path id="path322" d="M934.821 612.881L942.538 613.705C944.03 612.682 945.745 611.521 947.669 610.241L934.044 608.787C934.306 610.151 934.563 611.516 934.821 612.881Z" fill="#7D87E2"/>
</g>
<g id="g324">
<path id="path326" d="M1056.14 484.318L1041.2 499.563L1054.93 496.238L1056.14 484.318Z" fill="#3F3A9F"/>
</g>
<g id="g328">
<g id="g342">
<g id="g340" opacity="0.520004">
<g id="g338" opacity="0.520004">
<path id="path336" opacity="0.520004" d="M921.516 452.86L942.15 607.066L935.293 607.72L906.603 483.96L921.516 452.86Z" fill="#3F3A9F"/>
</g>
</g>
</g>
</g>
<g id="g344">
<path id="path346" d="M1022.22 873.312L955.881 906.735C955.881 906.735 947.061 940.54 981.189 957.631L989 949.991C995.537 943.598 1003.09 938.311 1011.36 934.343L1035.64 922.688L1022.22 873.312Z" fill="#673C37"/>
</g>
<g id="g348">
<path id="path350" d="M953.843 916.359C953.357 916.359 952.889 916.099 952.65 915.641C952.309 914.99 952.567 914.187 953.225 913.85L1019.33 879.933C1019.99 879.597 1020.8 879.85 1021.14 880.501C1021.48 881.153 1021.23 881.955 1020.57 882.293L954.459 916.21C954.262 916.311 954.051 916.359 953.843 916.359Z" fill="#885A56"/>
</g>
<g id="g352">
<path id="path354" d="M953.843 924.795C953.357 924.795 952.889 924.534 952.65 924.077C952.309 923.426 952.567 922.623 953.225 922.286L1019.33 888.368C1019.99 888.032 1020.8 888.284 1021.14 888.935C1021.48 889.588 1021.23 890.39 1020.57 890.727L954.459 924.646C954.262 924.747 954.051 924.795 953.843 924.795Z" fill="#885A56"/>
</g>
<g id="g356">
<path id="path358" d="M953.843 933.612C953.357 933.612 952.889 933.352 952.65 932.895C952.309 932.243 952.567 931.441 953.225 931.103L1019.33 897.186C1019.99 896.849 1020.8 897.103 1021.14 897.754C1021.48 898.407 1021.23 899.208 1020.57 899.546L954.459 933.463C954.262 933.565 954.051 933.612 953.843 933.612Z" fill="#885A56"/>
</g>
<g id="g360">
<path id="path362" d="M953.843 942.431C953.357 942.431 952.889 942.171 952.65 941.713C952.309 941.062 952.567 940.259 953.225 939.922L1019.33 906.005C1019.99 905.668 1020.8 905.922 1021.14 906.573C1021.48 907.226 1021.23 908.027 1020.57 908.365L954.459 942.282C954.262 942.383 954.051 942.431 953.843 942.431Z" fill="#885A56"/>
</g>
<g id="g364">
<path id="path366" d="M960.23 948.758C959.745 948.758 959.276 948.497 959.037 948.04C958.697 947.389 958.954 946.586 959.612 946.248L1025.72 912.33C1026.38 911.993 1027.19 912.247 1027.53 912.898C1027.87 913.551 1027.61 914.352 1026.96 914.69L960.846 948.609C960.649 948.71 960.438 948.758 960.23 948.758Z" fill="#885A56"/>
</g>
<g id="Rocket">
<g id="g168">
<path id="path170" d="M1580.41 694.423C1540.52 639.555 1432.98 629.775 1312.87 639.363C1284.84 687.329 1224.54 830.511 1399.71 966.921C1404.93 963.075 1410.17 959.183 1415.48 955.192C1655.36 774.634 1580.41 694.423 1580.41 694.423Z" fill="#CEE2F9"/>
</g>
<g id="Fire">
<g id="g156">
<path id="path158" d="M775.673 903.518C775.673 903.518 664.396 865.355 570.126 943.685C570.126 943.685 569.383 963.111 608.268 984.148C608.268 984.148 520.488 1035.85 481.198 1121.71C481.198 1121.71 566.634 1164.35 667.586 1142.27C667.586 1142.27 660.941 1179.01 660.384 1199.02C660.384 1199.02 752.249 1207.77 824.053 1125.29L845.506 1083.93L775.673 903.518Z" fill="#FFC761"/>
</g>
<g id="g160">
<path id="path162" d="M696.711 957.322L741.511 989.302C741.511 989.302 593.703 1069.94 576.04 1086.77C576.04 1086.77 661.123 1095.97 771.494 1064.09L754.709 1120.12C754.709 1120.12 806.133 1102.95 816.353 1044.52C816.353 1044.52 829.794 930.957 696.711 957.322" fill="#FF7502"/>
</g>
<g id="g476">
<path id="path478" d="M448.372 981.61C446.914 981.61 445.574 980.663 445.15 979.207C444.636 977.443 445.662 975.601 447.443 975.095L532.829 950.694C534.614 950.185 536.469 951.203 536.984 952.965C537.498 954.728 536.47 956.57 534.691 957.079L449.303 981.479C448.993 981.568 448.679 981.61 448.372 981.61Z" fill="#FFCD83"/>
</g>
<g id="g480">
<path id="path482" d="M531.995 1264.93C530.75 1264.93 529.554 1264.24 528.975 1263.06C528.165 1261.41 528.862 1259.42 530.528 1258.62L630.301 1210.68C631.966 1209.87 633.975 1210.56 634.783 1212.21C635.591 1213.87 634.895 1215.85 633.228 1216.65L533.456 1264.6C532.985 1264.82 532.486 1264.93 531.995 1264.93Z" fill="#FFCD83"/>
</g>
<path id="path486" d="M327.193 1191.35C325.879 1191.35 324.632 1190.58 324.094 1189.31C323.382 1187.61 324.19 1185.67 325.899 1184.96L447.021 1134.91C448.726 1134.2 450.695 1135 451.409 1136.7C452.123 1138.39 451.315 1140.34 449.605 1141.04L328.484 1191.1C328.061 1191.27 327.624 1191.35 327.193 1191.35Z" fill="#FFCD83"/>
<g id="g488">
<path id="path490" d="M286.532 1209.57C285.21 1209.57 283.955 1208.79 283.425 1207.5C282.723 1205.8 283.546 1203.86 285.262 1203.17L302.197 1196.32C303.916 1195.63 305.871 1196.44 306.571 1198.14C307.272 1199.84 306.449 1201.78 304.733 1202.47L287.798 1209.32C287.384 1209.49 286.953 1209.57 286.532 1209.57Z" fill="#FFCD83"/>
</g>
</g>
<g id="g172">
<path id="path174" d="M791.353 1073.06C823.727 1127.92 869.009 1155.97 869.009 1155.97C1026.69 1165.06 1175.32 1136.03 1415.48 955.263C1616.21 804.174 1596.5 723.351 1584.71 700.994C1253.22 964.344 909.665 1050.04 791.353 1073.06Z" fill="#D8E9F9"/>
</g>
<g id="g176">
<path id="path178" d="M1591.15 723.75C1591.13 723.557 1591.11 723.367 1591.09 723.176C1591.06 722.918 1591.04 722.658 1591.01 722.402C1591 722.347 1590.99 722.293 1590.99 722.238C1589.84 712.831 1587.14 705.913 1584.75 701.39C1494.65 772.968 1403.66 831.418 1316.54 879.058C1335.1 908.11 1361.94 937.87 1399.75 967.316C1404.97 963.471 1410.21 959.579 1415.51 955.586C1571.01 838.544 1594.22 763.666 1591.3 725.47C1591.3 725.42 1591.3 725.369 1591.29 725.319C1591.27 724.97 1591.24 724.627 1591.2 724.286C1591.19 724.106 1591.17 723.928 1591.15 723.75Z" fill="#C0DCFA"/>
</g>
<g id="g180">
<path id="path182" d="M1278.72 901.995C1278.95 904.477 1277.11 906.674 1274.6 906.901C1272.1 907.129 1269.88 905.301 1269.65 902.819C1269.42 900.338 1271.27 898.142 1273.77 897.913C1276.28 897.686 1278.49 899.514 1278.72 901.995Z" fill="#80BEFA"/>
</g>
<g id="g184">
<path id="path186" d="M1246.79 916.224C1247.01 918.706 1245.17 920.903 1242.66 921.129C1240.16 921.356 1237.94 919.529 1237.71 917.047C1237.48 914.565 1239.33 912.37 1241.83 912.142C1244.34 911.915 1246.56 913.743 1246.79 916.224Z" fill="#80BEFA"/>
</g>
<g id="g188">
<path id="path190" d="M1209.84 933.348C1210.06 935.829 1208.22 938.026 1205.71 938.252C1203.21 938.48 1200.99 936.652 1200.76 934.17C1200.53 931.689 1202.38 929.493 1204.88 929.266C1207.39 929.039 1209.61 930.866 1209.84 933.348Z" fill="#80BEFA"/>
</g>
<g id="g192">
<path id="path194" d="M1169 952.217C1169.23 954.698 1167.38 956.896 1164.88 957.123C1162.37 957.35 1160.16 955.523 1159.93 953.041C1159.7 950.559 1161.54 948.364 1164.05 948.136C1166.55 947.908 1168.77 949.735 1169 952.217Z" fill="#80BEFA"/>
</g>
<g id="g196">
<path id="path198" d="M1129.35 968.713C1129.58 971.195 1127.74 973.392 1125.23 973.619C1122.73 973.847 1120.51 972.019 1120.28 969.537C1120.05 967.056 1121.89 964.86 1124.4 964.633C1126.91 964.404 1129.12 966.232 1129.35 968.713Z" fill="#80BEFA"/>
</g>
<g id="g200">
<path id="path202" d="M1092.04 985.695C1092.27 988.177 1090.42 990.375 1087.92 990.601C1085.41 990.828 1083.19 989.001 1082.96 986.519C1082.73 984.038 1084.58 981.842 1087.08 981.615C1089.59 981.386 1091.81 983.214 1092.04 985.695Z" fill="#80BEFA"/>
</g>
<g id="g204">
<path id="path206" d="M1054.88 1000.57C1055.11 1003.05 1053.26 1005.25 1050.76 1005.48C1048.25 1005.71 1046.03 1003.88 1045.81 1001.4C1045.58 998.914 1047.42 996.719 1049.93 996.49C1052.43 996.263 1054.65 998.09 1054.88 1000.57Z" fill="#80BEFA"/>
</g>
<g id="g208">
<path id="path210" d="M1013.33 1015.5C1013.56 1017.98 1011.71 1020.18 1009.21 1020.4C1006.7 1020.63 1004.48 1018.8 1004.25 1016.32C1004.02 1013.84 1005.87 1011.64 1008.37 1011.42C1010.88 1011.19 1013.1 1013.02 1013.33 1015.5Z" fill="#80BEFA"/>
</g>
<g id="g212">
<path id="path214" d="M969.807 1030.08C970.036 1032.56 968.191 1034.76 965.686 1034.99C963.181 1035.21 960.964 1033.39 960.733 1030.91C960.504 1028.42 962.349 1026.23 964.855 1026C967.361 1025.77 969.577 1027.6 969.807 1030.08Z" fill="#80BEFA"/>
</g>
<g id="g220">
<path id="path222" d="M892.727 1054.68C892.956 1057.16 891.111 1059.36 888.606 1059.59C886.101 1059.81 883.883 1057.99 883.653 1055.5C883.424 1053.02 885.269 1050.83 887.774 1050.6C890.279 1050.37 892.497 1052.2 892.727 1054.68Z" fill="#80BEFA"/>
</g>
<g id="g224">
<path id="path226" d="M1083.75 673.19C1083.75 673.19 980.41 609.33 880.871 642.923C880.871 642.923 868.872 644.873 859.048 670.323C859.048 670.323 838.294 709.258 848.436 743.665L1084.73 679.132L1083.75 673.19Z" fill="#CEE2F9"/>
</g>
<g id="g232">
<path id="path234" d="M1576.35 689.374C1457.51 549.454 861.818 729.934 861.818 729.934C850.228 739.587 824.114 763.046 801.145 801.319C913.722 764.983 1383.2 621.466 1576.35 689.374Z" fill="#ECF3FD"/>
</g>
<g id="g236">
<path id="path238" d="M869.03 1156.2C899.792 1157.97 930.213 1158.28 961.033 1156.31C916.983 1115.22 862.51 1055.16 841.711 993.859C811.592 905.087 914.683 757.69 955.225 704.546C898.413 719.086 861.839 730.166 861.839 730.166C838.899 749.273 759.046 822.431 759.346 957.6C759.636 1088.45 869.03 1156.2 869.03 1156.2Z" fill="#80BEFA"/>
</g>
<g id="g240">
<path id="path242" d="M1312.86 639.841C1306.79 650.239 1299.22 665.09 1292.85 683.358C1403.37 668.226 1507.47 665.534 1576.39 689.766C1533.63 639.421 1429.13 630.557 1312.86 639.841Z" fill="#E0ECF8"/>
</g>
<g id="g244">
<path id="path246" d="M668.121 866.688C676.761 886.356 711.689 954.81 781.217 960.022C781.217 960.022 803.044 958.91 861.749 934.464C920.454 910.019 998.917 866.836 1039.91 793.168C1039.91 793.168 981.589 750.673 821.733 776.914C821.733 776.914 717.177 797.99 669.394 856.985C667.175 859.726 666.705 863.466 668.121 866.688Z" fill="#CEE2F9"/>
</g>
<g id="g248">
<path id="path250" d="M1039.91 793.169C1039.91 793.169 981.589 750.672 821.733 776.914C821.733 776.914 717.177 797.989 669.394 856.986C668.095 858.591 667.413 860.541 667.341 862.528C714.042 851.059 940.735 796.491 1039.91 793.169Z" fill="#E0ECF8"/>
</g>
<path id="path254" d="M841.227 1148.33C841.227 1148.33 823.639 1211.82 835.173 1254.94C844.389 1289.4 898.196 1271.43 898.196 1271.43C898.196 1271.43 1047.28 1240.7 1138.78 1041.05C1138.78 1041.05 1139.17 1029.55 1119.79 1031.31C1100.42 1033.07 1024.43 1024.92 869.107 1097.78C869.107 1097.78 850.919 1112.33 841.227 1148.33Z" fill="#CEE2F9"/>
<g id="g256">
<path id="path258" d="M889.596 1250.62C889.596 1250.62 855.283 1262.07 834.206 1250.96C834.502 1252.31 834.824 1253.63 835.173 1254.94C844.391 1289.4 898.196 1271.43 898.196 1271.43C898.196 1271.43 1047.28 1240.7 1138.78 1041.05C1138.78 1041.05 1138.88 1038.05 1136.39 1035.35C1034.5 1220.74 889.596 1250.62 889.596 1250.62Z" fill="#E0ECF8"/>
</g>
</g>
<g id="g368">
<path id="path370" d="M965.649 954.125C965.163 954.125 964.695 953.864 964.456 953.407C964.115 952.756 964.373 951.953 965.03 951.615L1031.14 917.699C1031.8 917.363 1032.61 917.615 1032.95 918.267C1033.29 918.919 1033.03 919.721 1032.38 920.058L966.265 953.976C966.068 954.077 965.857 954.125 965.649 954.125Z" fill="#885A56"/>
</g>
<g id="g372">
<path id="path374" d="M926.134 615.385C926.134 615.385 862.112 666.527 889.649 729.943C917.185 793.359 1076.14 819.016 1076.14 819.016C1076.14 819.016 1025.45 842.615 1010.21 877.652C994.977 912.691 1036.19 939.88 1065.88 941.331C1101.12 943.052 1171.94 932.269 1233.25 872.283C1286.75 819.933 1261.67 791.164 1261.67 791.164C1261.67 791.164 1235.42 753.728 1157.88 717.494C1092.69 687.03 1045.92 659.025 1045.92 659.025L1020.45 618.794L926.134 615.385Z" fill="#5D66D5"/>
</g>
<g id="g376">
<path id="path378" d="M1201.74 543.911L1181.34 662.29L1069.88 681.161L1070.68 670.262L1174.21 654.126L1194.03 541.64L1202.23 540.333L1201.74 543.911Z" fill="#5DACF9"/>
</g>
<g id="g380">
<path id="path382" d="M1310.15 640.422L1181.34 662.29L1202.23 540.333L1337.01 518.867L1310.15 640.422Z" fill="#A6D1FB"/>
</g>
<g id="g384">
<path id="path386" d="M1273.49 592.733C1272.62 598.619 1267.78 602.791 1262.69 602.053C1257.6 601.316 1254.17 595.946 1255.05 590.06C1255.91 584.176 1260.75 580.002 1265.84 580.74C1270.93 581.478 1274.36 586.848 1273.49 592.733Z" fill="white"/>
</g>
<g id="g388">
<path id="path390" d="M961.606 898.012C961.606 898.012 952.748 897.226 939.517 905.697C926.285 914.169 911.425 913.297 911.425 913.297C911.425 913.297 903.373 913.689 899.661 927.115C895.951 940.541 897.294 954.376 901.035 966.645C904.778 978.911 897.797 1005.08 897.946 1014.59C898.084 1023.5 902.581 1042.14 918.029 1053.87C918.029 1053.87 923.179 1056.42 930.387 1057.95C937.597 1059.48 950.985 1047.24 956.135 1027.85C961.285 1008.47 958.151 975.589 994.583 956.837C994.583 956.837 996.884 953.228 989.948 951.705C983.012 950.183 969.813 935.835 969.813 935.835C969.813 935.835 966.272 932.008 962.409 936.473C958.545 940.936 956.163 922.367 957.676 906.142L965.114 902.072C965.114 902.072 965.657 899.248 961.606 898.012" fill="#F97E6C"/>
</g>
<g id="g392">
<path id="path394" d="M926.694 1055.23C910.738 1043.11 906.769 1023.83 905.952 1014.66C905.071 1004.82 913.007 977.809 909.141 965.138C905.277 952.467 903.889 938.175 907.723 924.308C909.254 918.77 911.5 915.382 913.646 913.307C912.241 913.341 911.425 913.295 911.425 913.295C911.425 913.295 903.373 913.687 899.661 927.113C895.949 940.539 897.293 954.374 901.035 966.642C904.778 978.909 897.456 1005.49 897.946 1014.59C898.423 1023.48 902.58 1042.13 918.029 1053.86C918.029 1053.86 923.177 1056.42 930.387 1057.95C931.324 1058.14 932.367 1058.1 933.48 1057.85C929.33 1056.53 926.694 1055.23 926.694 1055.23Z" fill="white"/>
</g>
<g id="g396">
<path id="path398" d="M989.947 951.705C983.011 950.182 969.813 935.835 969.813 935.835C969.813 935.835 966.271 932.008 962.409 936.472C961.086 937.999 959.938 936.828 959.059 933.976C954.208 937.96 936.458 954.897 931.082 993.116C931.082 993.116 927.067 1018.09 927.067 1023.61C927.067 1023.61 948.259 1031.34 949.821 1033.11C950.111 1032.99 951.637 1033.56 953.926 1034.57C954.765 1032.44 955.512 1030.2 956.135 1027.85C961.285 1008.47 958.15 975.589 994.582 956.836C994.582 956.836 996.884 953.229 989.947 951.705" fill="#E45546"/>
</g>
<g id="g400">
<path id="path402" d="M990.019 951.713C983.084 950.19 969.885 935.842 969.885 935.842C969.885 935.842 966.343 932.015 962.481 936.48C961.673 937.413 960.931 937.328 960.275 936.48C960.079 936.924 959.886 937.374 959.709 937.881C956.139 948.045 932.938 957.769 928.476 1023.18C928.476 1023.18 948.778 1031.13 953.239 1035.99C953.277 1036.03 953.332 1036.05 953.372 1036.09C954.47 1033.52 955.433 1030.77 956.208 1027.86C961.356 1008.48 958.222 975.597 994.655 956.843C994.655 956.843 996.955 953.236 990.019 951.713" fill="#F97E6C"/>
</g>
<g id="g404">
<path id="path406" d="M956.672 1012.98L931.775 1001.14L958.31 1002.76L936.197 983.778L962.732 988.645L942.421 964.147C942.421 964.147 955.197 972.909 978.948 971.448C1002.7 969.988 992.05 958.793 984.352 958.793C976.655 958.793 965.352 970.15 965.352 970.15C965.352 970.15 974.689 952.466 964.697 946.949C954.706 941.434 954.378 961.713 963.223 969.177" stroke="white" stroke-width="2.66667" stroke-miterlimit="10" stroke-linecap="round" stroke-linejoin="round"/>
</g>
<g id="g408">
<path id="path410" d="M916.004 918.705C917.098 917.491 918.861 917.112 920.36 917.782C923.137 919.022 927.042 921.889 924.954 927.815C921.853 936.625 915.442 950.554 916.683 961.412C917.924 972.269 918.277 995.682 917.656 1002.03C917.037 1008.38 916.413 1016.08 913.925 1015.09C912.156 1014.39 908.204 1005.66 911.098 994.391C913.994 983.125 913.994 965.098 912.959 958.134C911.989 951.599 907.196 928.473 916.004 918.705Z" fill="#E45546"/>
</g>
<g id="g412">
<path id="path414" d="M1010.83 898.495C1010.31 898.495 1009.81 898.194 1009.6 897.692C1009.3 897.019 1009.61 896.236 1010.29 895.945C1011.54 895.415 1134.85 842.578 1166.24 819.256C1181.87 807.65 1188.62 798.94 1188.16 791.009C1187.67 782.771 1179.15 774.308 1160.53 763.571C1140.35 751.939 1135.65 750.114 1118.15 743.324C1104.61 738.067 1084.14 730.124 1043.73 712.787C1007.97 697.445 964.781 674.226 962.076 650.745C960.871 640.277 968.267 634.736 968.583 634.505C969.179 634.069 970.019 634.197 970.46 634.785C970.9 635.375 970.774 636.206 970.18 636.644C969.894 636.855 963.693 641.577 964.749 650.499C966.201 662.755 981.267 683.087 1044.8 710.347C1085.16 727.666 1105.61 735.599 1119.13 740.849C1136.78 747.697 1141.53 749.538 1161.88 761.273C1181.63 772.66 1190.29 781.505 1190.84 790.855C1191.36 799.771 1184.27 809.187 1167.86 821.382C1136.21 844.892 1012.6 897.854 1011.36 898.386C1011.19 898.46 1011 898.495 1010.83 898.495Z" fill="#3B35A5"/>
</g>
<g id="g416">
<path id="path418" d="M1078.79 593.019C1078.79 593.019 1097.35 641.918 1085.31 672.113C1085.31 672.113 1052.16 646.49 1042.79 582.152C1042.79 582.152 1035.61 538.202 1048.96 528.673C1048.96 528.673 1071.29 565.268 1078.79 593.019Z" fill="#4FA9F3"/>
</g>
<g id="g420">
<path id="path422" d="M1042.91 572.147L1038.64 539.006L1094.46 523.709C1094.46 523.709 1114.11 518.454 1120.29 515.396C1126.47 512.339 1136.48 510.263 1143.96 504.33C1143.96 504.33 1146.12 515.46 1121.85 527.933C1121.85 527.933 1135.1 535.277 1138.9 538.243C1142.71 541.21 1142.5 545.309 1160.57 569.472C1160.57 569.472 1157.6 572.773 1151.99 568.731L1156.3 574.559C1156.3 574.559 1150.8 578.932 1144.33 572.495L1147.81 578.703C1147.81 578.703 1142.19 582.182 1134.11 572.944C1134.11 572.944 1130.27 567.839 1124.03 563.345C1124.03 563.345 1132.21 579.372 1134.49 582.813C1134.49 582.813 1130.31 586.036 1122.96 576.078C1122.96 576.078 1117.69 566.878 1109.71 567.343C1101.74 567.808 1092.74 566.696 1092.74 566.696L1042.91 572.147Z" fill="#FFCACC"/>
</g>
<g id="g424">
<path id="path426" d="M1116.04 525.332C1116.04 525.332 1119.41 528.304 1121.85 527.934C1121.85 527.934 1125.77 525.911 1127.58 524.727C1127.58 524.727 1117.48 525.442 1116.04 525.332Z" fill="#FFA9AA"/>
</g>
<g id="g428">
<path id="path430" d="M1149.8 566.565C1149.8 566.565 1134.49 548.421 1132.13 546.696C1129.78 544.969 1118.31 539.69 1118.31 539.69L1114.13 537.619C1114.13 537.619 1112.33 536.319 1113.87 535C1115.11 533.93 1116.49 535.083 1116.49 535.083C1116.49 535.083 1131.37 543.225 1133.61 544.585C1135.84 545.946 1149.8 566.565 1149.8 566.565Z" fill="#FFA9AA"/>
</g>
<g id="g432">
<path id="path434" d="M1141.42 569.26C1141.42 569.26 1129.38 556.391 1127.03 554.666C1124.67 552.941 1113.2 547.661 1113.2 547.661L1109.03 545.589C1109.03 545.589 1107.22 544.291 1108.76 542.972C1110.01 541.902 1111.38 543.055 1111.38 543.055C1111.38 543.055 1126.27 551.197 1128.5 552.557C1130.73 553.918 1141.42 569.26 1141.42 569.26Z" fill="#FFA9AA"/>
</g>
<g id="g436">
<path id="path438" d="M1106.26 555.631C1106.26 555.631 1104.23 553.256 1107.49 553.198C1107.49 553.198 1120.74 560.528 1123.11 562.313C1123.11 562.313 1106.77 555.53 1106.26 555.631" fill="#FFA9AA"/>
</g>
<g id="g440">
<path id="path442" d="M1130.17 575.934C1130.17 575.934 1128.16 577.627 1129.68 579.268C1131.2 580.909 1133.38 581.961 1133.95 581.996L1130.5 575.741C1130.5 575.741 1130.24 575.856 1130.17 575.934Z" fill="#F86934"/>
</g>
<g id="g444">
<path id="path446" d="M1142.56 569.937L1146.82 576.934C1146.82 576.934 1141.24 575.823 1139.48 572.766C1139.48 572.766 1138.61 571.333 1142.56 569.937" fill="#F86934"/>
</g>
<g id="g448">
<path id="path450" d="M1150.79 567.256L1155.76 573.85C1155.76 573.85 1151.49 574.229 1148.77 571.249C1146.06 568.27 1150.79 567.256 1150.79 567.256Z" fill="#F86934"/>
</g>
<g id="g452">
<path id="path454" d="M1154.53 560.887L1159.94 568.58C1159.94 568.58 1155.49 569.424 1152.89 565.243C1150.28 561.06 1154.53 560.887 1154.53 560.887Z" fill="#F86934"/>
</g>
<g id="g456">
<path id="path458" d="M1132.88 510.453C1132.88 510.453 1137.04 508.751 1138.18 508.028C1138.18 508.028 1141.31 506.335 1142.8 505.2C1142.8 505.2 1143.37 508.717 1137.62 512.058C1137.62 512.058 1134.72 514.032 1132.88 510.453" fill="#F86934"/>
</g>
<g id="g460">
<path id="path462" d="M1043.26 572.457L1070.26 569.357C1053.67 560.388 1052.8 534.905 1052.8 534.905L1048.04 536.177C1025.48 546.955 1043.26 572.457 1043.26 572.457Z" fill="#FFA9AA"/>
</g>
<g id="g464">
<path id="path466" d="M926.545 375.207C926.545 375.207 876.66 374.797 859.959 391.326C843.259 407.854 787.511 570.462 794.62 596.716C801.729 622.969 851.018 641.083 871.048 646.149C891.078 651.215 1006.54 689.004 1085.31 672.112C1085.31 672.112 1035.46 589.997 1047.66 530.862C1047.66 530.862 1047.88 529.153 1048.96 528.673L915.123 550.385L933.676 446.004C933.676 446.004 945.578 415.411 926.545 375.207" fill="#AAD2F8"/>
</g>
<g id="g468">
<path id="path470" d="M1058.26 674.113C1057.83 674.113 1057.41 673.913 1057.15 673.538C1015.82 614.268 1026.45 536.282 1026.56 535.5C1026.67 534.775 1027.34 534.27 1028.08 534.373C1028.81 534.476 1029.32 535.15 1029.22 535.875C1029.11 536.646 1018.63 613.63 1059.36 672.029C1059.78 672.632 1059.63 673.46 1059.02 673.877C1058.79 674.036 1058.52 674.113 1058.26 674.113Z" fill="#D7E8FB"/>
</g>
<g id="g472">
<path id="path474" d="M1123.1 792.593C1123.1 792.593 1085.6 814.508 942.658 776.655C942.658 776.655 989.382 804.173 1076.14 819.015L1123.1 792.593Z" fill="#3B34A3"/>
</g>
<g id="g492">
<path id="path494" d="M1270.27 528.737L1202.23 540.333Z" fill="#A6D1FB"/>
</g>
<g id="g496">
<path id="path498" d="M1202.23 540.997C1201.92 540.997 1201.63 540.769 1201.57 540.446C1201.51 540.084 1201.76 539.74 1202.12 539.678L1270.16 528.082C1270.53 528.022 1270.87 528.261 1270.94 528.624C1271 528.986 1270.75 529.33 1270.39 529.392L1202.35 540.988C1202.31 540.995 1202.27 540.997 1202.23 540.997Z" fill="white"/>
</g>
</g>
</g>
</g>
</g>
</svg>
