<svg width="54" height="54" viewBox="0 0 54 54" fill="none" xmlns="http://www.w3.org/2000/svg">
<g id="payments 1">
<g id="Group">
<g id="7   BANK DEAL">
<g id="Group_2">
<g id="Group_3">
<path id="Vector" fill-rule="evenodd" clip-rule="evenodd" d="M7.07435 41.7106L7.04351 40.3503H8.19293V39.0549H46.9381V40.3503H47.8568V41.7157H48.5607V43.0813H5.91902V41.7157H7.07435V41.7106ZM10.0973 18.4985H8.19293L27.7964 9.09833L47.3999 18.4985H45.2476V39.0549H10.0973V18.4985Z" fill="#FFF1DF"/>
<path id="Vector_2" fill-rule="evenodd" clip-rule="evenodd" d="M47.857 41.7097H7.07451L7.06599 41.3341H47.857V41.7097ZM46.9383 40.3425H8.19312V39.9669H46.9383V40.3425ZM45.2478 39.0516H10.0975V38.676H45.2478V39.0516ZM45.2478 18.9055L10.0975 18.9566V18.5613L45.2478 18.5102V18.9055Z" fill="#FFBDB4"/>
<path id="Vector_3" fill-rule="evenodd" clip-rule="evenodd" d="M45.2477 18.806L40.002 19.563V38.7635H35.0695V19.2002C34.1518 19.3131 31.8918 19.5936 29.7841 19.8731V38.7635H24.8514V18.9352L19.566 19.563V38.7635H14.6334V19.0084L10.0974 19.563V18.7335C10.0974 18.7335 13.4336 18.8349 14.6334 18.9111V18.8003H19.566V18.7335H25.3851L25.2084 18.8003H29.7841V18.9173L35.0695 18.8089V18.8003H40.002V18.7335L45.2477 18.7998V18.806Z" fill="#FFBDB4"/>
</g>
<g id="Group_4">
<g id="Group_5">
<path id="Vector_4" d="M27.7963 17.1825C29.5191 17.1825 30.9157 15.7859 30.9157 14.0631C30.9157 12.3402 29.5191 10.9436 27.7963 10.9436C26.0734 10.9436 24.6768 12.3402 24.6768 14.0631C24.6768 15.7859 26.0734 17.1825 27.7963 17.1825Z" fill="#FFCF84"/>
</g>
<g id="Group_6">
<path id="Vector_5" fill-rule="evenodd" clip-rule="evenodd" d="M27.7963 11.6299C29.1392 11.6299 30.2295 12.7202 30.2295 14.0631C30.2295 15.406 29.1392 16.4962 27.7963 16.4962C27.7418 16.4962 27.6975 16.5405 27.6975 16.5951C27.6975 16.6496 27.7418 16.6939 27.7963 16.6939C29.2483 16.6939 30.4271 15.5151 30.4271 14.0631C30.4271 12.6111 29.2483 11.4322 27.7963 11.4322C27.7418 11.4322 27.6975 11.4765 27.6975 11.5311C27.6975 11.5856 27.7418 11.6299 27.7963 11.6299Z" fill="#FD9909"/>
</g>
<g id="Group_7">
<path id="Vector_6" fill-rule="evenodd" clip-rule="evenodd" d="M27.7962 16.4962C26.4532 16.4962 25.3629 15.406 25.3629 14.0631C25.3629 12.7202 26.4532 11.6299 27.7962 11.6299C27.8508 11.6299 27.8951 11.5856 27.8951 11.5311C27.8951 11.4765 27.8508 11.4322 27.7962 11.4322C26.3441 11.4322 25.1654 12.6111 25.1654 14.0631C25.1654 15.5151 26.3441 16.6939 27.7962 16.6939C27.8508 16.6939 27.8951 16.6496 27.8951 16.5951C27.8951 16.5405 27.8508 16.4962 27.7962 16.4962Z" fill="#FD9909"/>
</g>
<path id="Vector_7" fill-rule="evenodd" clip-rule="evenodd" d="M28.1719 17.1603L28.1081 16.6464C28.1014 16.5922 28.1399 16.5428 28.1941 16.5361C28.2482 16.5294 28.2974 16.5679 28.3044 16.622L28.3674 17.1305C28.303 17.1424 28.2377 17.1524 28.1719 17.1603ZM28.7552 17.0323L28.5785 16.5108C28.5611 16.4592 28.5888 16.403 28.6406 16.3855C28.6922 16.368 28.7483 16.3957 28.7657 16.4474L28.9414 16.9655C28.8803 16.9897 28.8183 17.012 28.7552 17.0323ZM26.0768 16.6657L26.3515 16.2139C26.3798 16.1673 26.4406 16.1525 26.4873 16.1808C26.5339 16.2092 26.5488 16.27 26.5205 16.3166L26.245 16.7696C26.1876 16.7367 26.1315 16.702 26.0768 16.6657ZM30.363 15.8357L29.9089 15.4997C29.8653 15.4673 29.856 15.4054 29.8884 15.3615C29.9208 15.3177 29.9827 15.3084 30.0265 15.3408L30.4705 15.6694C30.4365 15.726 30.4005 15.7815 30.363 15.8357ZM24.8317 15.0356L25.3652 14.7955C25.4148 14.7731 25.4735 14.7953 25.4958 14.845C25.5182 14.8948 25.496 14.9533 25.4462 14.9757L24.8995 15.2218C24.875 15.1607 24.8523 15.0986 24.8317 15.0356ZM30.8233 13.3067C30.8391 13.3703 30.8531 13.4348 30.865 13.4999L30.339 13.6239C30.2861 13.6365 30.2327 13.6035 30.2202 13.5504C30.2076 13.4974 30.2406 13.4441 30.2936 13.4316L30.8233 13.3067ZM25.2187 12.3067L25.6888 12.6141C25.7344 12.644 25.7473 12.7053 25.7174 12.7509C25.6876 12.7966 25.6263 12.8094 25.5806 12.7795L25.1126 12.4733C25.1462 12.4166 25.1818 12.361 25.2187 12.3067ZM25.5255 11.9253L25.9078 12.2065C25.9516 12.2388 25.9611 12.3007 25.9287 12.3446C25.8965 12.3886 25.8344 12.398 25.7905 12.3657L25.3942 12.074C25.4363 12.0231 25.4802 11.9735 25.5255 11.9253ZM29.5994 11.5181C29.6532 11.5563 29.7057 11.5961 29.7569 11.6376L29.4152 12.0684C29.3812 12.1112 29.3189 12.1183 29.2762 12.0844C29.2335 12.0505 29.2264 11.9883 29.2602 11.9456L29.5994 11.5181ZM29.0701 11.2153C29.1304 11.2423 29.1897 11.2713 29.2478 11.3019L29.0068 11.7538C28.9811 11.8019 28.9212 11.8202 28.873 11.7945C28.825 11.7688 28.8068 11.7089 28.8325 11.6608L29.0701 11.2153ZM27.0969 11.0227L27.236 11.5188C27.2506 11.5714 27.22 11.626 27.1674 11.6407C27.1149 11.6554 27.0603 11.6247 27.0457 11.5722L26.9057 11.0731C26.9686 11.0543 27.0322 11.0375 27.0969 11.0227Z" fill="#FD9909"/>
</g>
<g id="Group_8">
<g id="Group_9">
<path id="Vector_8" d="M26.9868 14.6255C27.1448 14.8559 27.3583 14.9987 27.629 15.0624C27.9536 15.1297 28.1422 15.0338 28.2051 14.777C28.2507 14.5664 28.1703 14.4155 27.9639 14.3243C27.8664 14.2862 27.7619 14.2465 27.6478 14.2006C27.444 14.1141 27.3002 13.9867 27.2189 13.8231C27.135 13.6548 27.1171 13.4677 27.1619 13.261C27.2152 13.0146 27.3279 12.8313 27.5068 12.7124C27.6788 12.5921 27.8936 12.5602 28.1486 12.6122C28.4568 12.6883 28.7033 12.8467 28.8892 13.0832L28.6037 13.3909C28.4493 13.2113 28.2602 13.0905 28.0383 13.0375C27.9234 13.0123 27.819 13.0226 27.7278 13.0733C27.6331 13.1232 27.5689 13.2174 27.5362 13.3517C27.5181 13.4352 27.5305 13.5128 27.5715 13.5926C27.6126 13.6724 27.6937 13.7361 27.8095 13.7907C27.8731 13.8172 27.9636 13.8538 28.0786 13.8957C28.3041 13.9828 28.4541 14.1157 28.5319 14.2952C28.6071 14.47 28.625 14.6571 28.5811 14.8598C28.4536 15.3979 28.1018 15.6078 27.5326 15.4908C27.167 15.4104 26.8785 15.2095 26.6699 14.893L26.9868 14.6255Z" fill="#FD9909"/>
</g>
<g id="Group_10">
<path id="Vector_9" fill-rule="evenodd" clip-rule="evenodd" d="M27.7342 12.0796L27.3798 15.9521L27.5912 15.9834L27.9456 12.1109L27.7342 12.0796Z" fill="#FD9909"/>
</g>
<g id="Group_11">
<path id="Vector_10" fill-rule="evenodd" clip-rule="evenodd" d="M28.1441 12.0915L27.7897 15.9641L28.0011 15.9953L28.3555 12.1228L28.1441 12.0915Z" fill="#FD9909"/>
</g>
</g>
</g>
<g id="Group_12">
<g id="Group_13">
<g id="Group_14">
<path id="Vector_11" fill-rule="evenodd" clip-rule="evenodd" d="M15.8022 29.0461L16.4752 32.8797L13.0837 33.5572L12.4233 29.6644L15.8022 29.0461Z" fill="white"/>
</g>
<g id="Group_15">
<path id="Vector_12" fill-rule="evenodd" clip-rule="evenodd" d="M12.53 29.7446L12.8826 31.8229C12.8917 31.8767 12.8556 31.9276 12.8018 31.9368C12.7481 31.9458 12.6971 31.9096 12.6879 31.856L12.3192 29.6815C12.3101 29.6282 12.3455 29.5776 12.3987 29.5679L15.7767 28.9494C15.8026 28.9446 15.8293 28.9504 15.8508 28.9655C15.8724 28.9806 15.8871 29.0036 15.8917 29.0294L16.2224 30.9127C16.2318 30.9664 16.1958 31.0177 16.1422 31.027C16.0885 31.0365 16.0374 31.0005 16.0279 30.9469L15.7145 29.1616L12.53 29.7446Z" fill="black"/>
</g>
<g id="Group_16">
<path id="Vector_13" fill-rule="evenodd" clip-rule="evenodd" d="M16.3685 32.8016L16.0426 30.9451C16.0332 30.8914 16.069 30.8402 16.1227 30.8307C16.1763 30.8214 16.2275 30.8573 16.237 30.9109L16.5796 32.8624C16.5889 32.9152 16.5544 32.9658 16.5018 32.9763L13.1112 33.654C13.085 33.6593 13.0579 33.6537 13.0359 33.6385C13.0139 33.6234 12.999 33.6 12.9945 33.5738L12.7028 31.8543C12.6937 31.8005 12.7299 31.7494 12.7836 31.7404C12.8373 31.7312 12.8883 31.7674 12.8974 31.8212L13.1721 33.4404L16.3685 32.8016Z" fill="black"/>
</g>
<path id="Vector_14" fill-rule="evenodd" clip-rule="evenodd" d="M16.0963 32.6221L16.0518 32.3742L13.3236 32.8661L13.3682 33.114L16.0963 32.6221ZM15.9963 32.0522L15.9517 31.8045L13.2235 32.2963L13.2682 32.5441L15.9963 32.0522ZM15.8961 31.4824L15.8515 31.2344L13.1234 31.7264L13.168 31.9744L15.8961 31.4824ZM15.796 30.9127L15.7514 30.6647L13.0233 31.1567L13.0679 31.4046L15.796 30.9127ZM15.6959 30.343L15.6513 30.095L12.9232 30.5869L12.9678 30.8349L15.6959 30.343ZM15.5957 29.7732L15.5511 29.5252L12.823 30.0171L12.8677 30.2649L15.5957 29.7732Z" fill="black"/>
</g>
<g id="Group_17">
<g id="Group_18">
<path id="Vector_15" fill-rule="evenodd" clip-rule="evenodd" d="M17.0986 29.4827L17.7423 32.7563L14.8712 33.2618L14.2372 29.9381L17.0986 29.4827Z" fill="white"/>
</g>
<g id="Group_19">
<path id="Vector_16" fill-rule="evenodd" clip-rule="evenodd" d="M18.1311 32.7001L17.8992 31.5214C17.892 31.4848 17.9157 31.4504 17.952 31.445C17.9884 31.4394 18.0237 31.4647 18.0309 31.5014L18.2756 32.745C18.2826 32.7812 18.2599 32.8151 18.2243 32.8213L15.3543 33.3273C15.3365 33.3305 15.318 33.3262 15.3029 33.3155C15.2877 33.3048 15.2772 33.2887 15.2738 33.2707L15.0048 31.8615C14.9979 31.8247 15.0217 31.7907 15.0581 31.7853C15.0944 31.7801 15.1297 31.8055 15.1367 31.8423L15.3925 33.1831L18.1311 32.7001Z" fill="black"/>
</g>
<g id="Group_20">
<path id="Vector_17" fill-rule="evenodd" clip-rule="evenodd" d="M13.9957 29.9853L14.3453 31.827C14.3523 31.8634 14.3282 31.8974 14.2917 31.9026C14.2551 31.9079 14.2199 31.8824 14.2129 31.8459L13.8509 29.9389C13.844 29.9027 13.8676 29.869 13.9037 29.8633L16.7766 29.4128C16.7942 29.41 16.8125 29.4143 16.8274 29.4249C16.8424 29.4354 16.8527 29.4513 16.8562 29.4689L17.252 31.4909C17.2591 31.5274 17.2353 31.5614 17.1987 31.567C17.1623 31.5724 17.1268 31.5472 17.1197 31.5106L16.7369 29.5553L13.9957 29.9853Z" fill="black"/>
</g>
<path id="Vector_18" fill-rule="evenodd" clip-rule="evenodd" d="M17.4702 32.3406L17.4212 32.1306L15.1054 32.8299L15.1544 33.0399L17.4702 32.3406ZM17.3596 31.8576L17.3105 31.6478L14.9947 32.3471L15.0438 32.557L17.3596 31.8576ZM17.2488 31.3748L17.1997 31.1648L14.884 31.8641L14.9331 32.0741L17.2488 31.3748ZM17.1381 30.892L17.0891 30.682L14.7733 31.3813L14.8224 31.5913L17.1381 30.892ZM17.0274 30.4092L16.9784 30.1992L14.6626 30.8985L14.7117 31.1085L17.0274 30.4092ZM16.9167 29.9264L16.8677 29.7164L14.5519 30.4156L14.601 30.6255L16.9167 29.9264Z" fill="black"/>
</g>
</g>
<g id="COINS">
<g id="Group_21">
<g id="Group_22">
<path id="Vector_19" d="M13.0479 43.152C14.4912 43.152 15.6613 41.9506 15.6613 40.4685C15.6613 38.9864 14.4912 37.785 13.0479 37.785C11.6045 37.785 10.4344 38.9864 10.4344 40.4685C10.4344 41.9506 11.6045 43.152 13.0479 43.152Z" fill="#FFCF84"/>
</g>
<g id="Group_23">
<path id="Vector_20" fill-rule="evenodd" clip-rule="evenodd" d="M13.048 38.3753C14.1731 38.3753 15.0865 39.3132 15.0865 40.4684C15.0865 41.6236 14.1731 42.5615 13.048 42.5615C13.0023 42.5615 12.9652 42.5996 12.9652 42.6465C12.9652 42.6935 13.0023 42.7316 13.048 42.7316C14.2645 42.7316 15.2521 41.7175 15.2521 40.4684C15.2521 39.2193 14.2645 38.2052 13.048 38.2052C13.0023 38.2052 12.9652 38.2433 12.9652 38.2902C12.9652 38.3372 13.0023 38.3753 13.048 38.3753Z" fill="#FD9909"/>
</g>
<g id="Group_24">
<path id="Vector_21" fill-rule="evenodd" clip-rule="evenodd" d="M13.048 42.5615C11.9228 42.5615 11.0094 41.6236 11.0094 40.4684C11.0094 39.3132 11.9228 38.3753 13.048 38.3753C13.0937 38.3753 13.1308 38.3372 13.1308 38.2902C13.1308 38.2433 13.0937 38.2052 13.048 38.2052C11.8314 38.2052 10.8439 39.2193 10.8439 40.4684C10.8439 41.7175 11.8314 42.7316 13.048 42.7316C13.0937 42.7316 13.1308 42.6935 13.1308 42.6465C13.1308 42.5996 13.0937 42.5615 13.048 42.5615Z" fill="#FD9909"/>
</g>
<path id="Vector_22" fill-rule="evenodd" clip-rule="evenodd" d="M13.3626 43.1328L13.3091 42.6907C13.3035 42.6441 13.3358 42.6016 13.3811 42.5958C13.4265 42.5901 13.4677 42.6232 13.4735 42.6697L13.5264 43.1072C13.4724 43.1174 13.4177 43.126 13.3626 43.1328ZM13.8513 43.0227L13.7032 42.5741C13.6886 42.5297 13.7118 42.4814 13.7552 42.4663C13.7984 42.4513 13.8455 42.4751 13.86 42.5195L14.0073 42.9653C13.9561 42.9861 13.9041 43.0052 13.8513 43.0227ZM11.6073 42.7073L11.8374 42.3187C11.8611 42.2786 11.9121 42.2658 11.9512 42.2902C11.9903 42.3146 12.0027 42.3669 11.979 42.407L11.7482 42.7967C11.7002 42.7684 11.6531 42.7386 11.6073 42.7073ZM15.1982 41.9933L14.8178 41.7043C14.7812 41.6764 14.7735 41.6231 14.8006 41.5854C14.8278 41.5477 14.8796 41.5397 14.9164 41.5676L15.2883 41.8503C15.2598 41.899 15.2297 41.9467 15.1982 41.9933ZM10.5642 41.305L11.0111 41.0985C11.0527 41.0792 11.1019 41.0983 11.1206 41.1411C11.1393 41.1839 11.1207 41.2343 11.079 41.2535L10.621 41.4653C10.6004 41.4127 10.5814 41.3593 10.5642 41.305ZM15.5839 39.8177C15.5971 39.8725 15.6089 39.9279 15.6188 39.984L15.1782 40.0907C15.1338 40.1014 15.0891 40.0731 15.0787 40.0274C15.0681 39.9818 15.0957 39.936 15.1401 39.9252L15.5839 39.8177ZM10.8884 38.9575L11.2822 39.222C11.3205 39.2477 11.3312 39.3004 11.3062 39.3397C11.2812 39.3789 11.2299 39.39 11.1916 39.3643L10.7995 39.1009C10.8276 39.052 10.8574 39.0042 10.8884 38.9575ZM11.1454 38.6295L11.4657 38.8713C11.5024 38.8991 11.5104 38.9524 11.4832 38.9901C11.4562 39.0279 11.4042 39.036 11.3675 39.0082L11.0355 38.7574C11.0707 38.7136 11.1075 38.6709 11.1454 38.6295ZM14.5585 38.2791C14.6036 38.312 14.6476 38.3462 14.6905 38.3819L14.4042 38.7526C14.3757 38.7893 14.3235 38.7955 14.2878 38.7663C14.252 38.7372 14.246 38.6836 14.2744 38.6469L14.5585 38.2791ZM14.1151 38.0186C14.1656 38.0419 14.2152 38.0668 14.2639 38.0931L14.0621 38.4819C14.0405 38.5233 13.9904 38.539 13.95 38.5169C13.9097 38.4948 13.8945 38.4433 13.916 38.4019L14.1151 38.0186ZM12.4619 37.853L12.5785 38.2798C12.5907 38.3249 12.5651 38.3719 12.521 38.3846C12.477 38.3973 12.4313 38.3709 12.419 38.3257L12.3018 37.8963C12.3544 37.8802 12.4078 37.8657 12.4619 37.853Z" fill="#FD9909"/>
</g>
<g id="Group_25">
<g id="Group_26">
<path id="Vector_23" d="M22.7677 41.9784C23.4801 42.9908 24.9134 43.2091 25.969 42.4658C27.0247 41.7226 27.3029 40.2994 26.5905 39.2869C25.8781 38.2745 24.4449 38.0563 23.3892 38.7995C22.3336 39.5427 22.0553 40.9659 22.7677 41.9784Z" fill="#FFCF84"/>
</g>
<g id="Group_27">
<path id="Vector_24" fill-rule="evenodd" clip-rule="evenodd" d="M25.9092 40.1153C26.5928 40.7865 26.4272 41.7369 25.5397 42.2363C24.6522 42.7358 23.3767 42.5964 22.6932 41.9253C22.6654 41.898 22.6136 41.8923 22.5776 41.9126C22.5415 41.9329 22.5348 41.9715 22.5626 41.9988C23.3016 42.7244 24.6807 42.8751 25.6403 42.3351C26.5999 41.7951 26.7789 40.7675 26.0399 40.0418C26.0121 40.0146 25.9603 40.0089 25.9243 40.0292C25.8882 40.0495 25.8815 40.0881 25.9092 40.1153Z" fill="#FD9909"/>
</g>
<g id="Group_28">
<path id="Vector_25" fill-rule="evenodd" clip-rule="evenodd" d="M23.4489 41.1497C22.7653 40.4785 22.9308 39.5281 23.8183 39.0286C24.7058 38.5292 25.9813 38.6686 26.6649 39.3398C26.6927 39.367 26.7445 39.3727 26.7805 39.3524C26.8166 39.3321 26.8233 39.2935 26.7956 39.2663C26.0564 38.5405 24.6774 38.3899 23.7178 38.9299C22.7582 39.47 22.5791 40.4975 23.3182 41.2232C23.346 41.2505 23.3978 41.2561 23.4339 41.2358C23.4699 41.2156 23.4766 41.177 23.4489 41.1497Z" fill="#FD9909"/>
</g>
<path id="Vector_26" fill-rule="evenodd" clip-rule="evenodd" d="M22.8475 42.0142L23.1484 41.7846C23.1801 41.7604 23.2266 41.7673 23.2523 41.8001C23.278 41.8329 23.273 41.879 23.2413 41.9033L22.9436 42.1304C22.9105 42.0929 22.8785 42.0541 22.8475 42.0142ZM23.159 42.3467L23.4201 42.0409C23.446 42.0106 23.4926 42.0081 23.5241 42.0353C23.5556 42.0625 23.5602 42.1091 23.5343 42.1394L23.2748 42.4433C23.2354 42.4125 23.1968 42.3802 23.159 42.3467ZM22.3341 40.4706L22.7293 40.4839C22.77 40.4852 22.8035 40.5194 22.8039 40.5601C22.8043 40.6008 22.7716 40.6327 22.7308 40.6314L22.3346 40.6181C22.3329 40.5687 22.3327 40.5195 22.3341 40.4706ZM24.553 42.9541L24.587 42.5359C24.5903 42.4956 24.626 42.4669 24.6666 42.4719C24.7072 42.4769 24.7375 42.5138 24.7343 42.5542L24.701 42.9632C24.6517 42.9618 24.6023 42.9587 24.553 42.9541ZM22.877 39.0642L23.24 39.3232C23.2738 39.3473 23.2829 39.3936 23.2601 39.4263C23.2374 39.4591 23.1915 39.4661 23.1576 39.4419L22.7856 39.1765C22.8147 39.1381 22.8451 39.1006 22.877 39.0642ZM26.3397 42.3276C26.3055 42.3612 26.2701 42.3939 26.2335 42.4255L25.9471 42.1289C25.9183 42.099 25.9181 42.0522 25.9469 42.0247C25.9756 41.997 26.0224 41.999 26.0513 42.0289L26.3397 42.3276ZM24.7615 38.3168L24.752 38.735C24.7511 38.7757 24.7172 38.8064 24.6765 38.8038C24.6357 38.8011 24.6034 38.7659 24.6043 38.7253L24.6138 38.3088C24.6631 38.3099 24.7124 38.3127 24.7615 38.3168ZM25.1246 38.3767L25.0971 38.7282C25.0939 38.7686 25.0584 38.7974 25.0177 38.7924C24.9771 38.7875 24.9466 38.7506 24.9498 38.7103L24.9784 38.3458C25.0274 38.3545 25.0762 38.3649 25.1246 38.3767ZM26.9914 40.8769C26.9884 40.9258 26.9839 40.9746 26.9778 41.0231L26.5695 40.9586C26.5289 40.9521 26.4998 40.9143 26.5045 40.8741C26.5091 40.8339 26.5458 40.8065 26.5863 40.8128L26.9914 40.8769ZM26.9746 40.4218C26.9813 40.4709 26.9863 40.5201 26.9898 40.5691L26.6079 40.5779C26.5672 40.5788 26.532 40.5465 26.5292 40.5057C26.5266 40.4651 26.5574 40.4313 26.5981 40.4304L26.9746 40.4218ZM26.3178 39.0681L26.0579 39.3403C26.0303 39.369 25.9836 39.3691 25.9535 39.3403C25.9234 39.3115 25.9213 39.2648 25.9489 39.236L26.2104 38.9623C26.2471 38.9963 26.2828 39.0315 26.3178 39.0681Z" fill="#FD9909"/>
</g>
</g>
<g id="CHARACTERS">
<g id="Group_29">
<path id="Vector_27" fill-rule="evenodd" clip-rule="evenodd" d="M18.7455 21.0206C18.7386 21.0099 18.4696 21.0197 18.4487 21.0184C18.1337 20.9989 17.8192 20.968 17.5057 20.932C16.4637 20.8125 15.2205 20.7302 14.3608 20.0658C13.3827 19.3101 14.2068 18.1999 15.278 18.4053C16.5987 18.6585 17.5991 19.967 18.7337 20.6193" fill="black"/>
<g id="Group_30">
<path id="Vector_28" d="M19.822 22.301C20.5311 22.301 21.1058 21.7262 21.1058 21.0172C21.1058 20.3082 20.5311 19.7334 19.822 19.7334C19.113 19.7334 18.5382 20.3082 18.5382 21.0172C18.5382 21.7262 19.113 22.301 19.822 22.301Z" fill="#8673FF"/>
</g>
<path id="Vector_29" fill-rule="evenodd" clip-rule="evenodd" d="M19.262 21.5106L18.8425 21.8472C18.6525 21.6234 18.5378 21.3336 18.5378 21.0172C18.5378 20.3086 19.1131 19.7334 19.8216 19.7334C20.4778 19.7334 21.0195 20.2266 21.0962 20.8623C20.8816 20.8372 20.7033 20.7046 20.5594 20.4696C20.5473 20.9486 20.1258 21.1314 19.6175 21.2253C19.5963 21.1034 19.4875 21.0104 19.3568 21.0104C19.2108 21.0104 19.0922 21.1263 19.0922 21.269C19.0922 21.3792 19.1627 21.4733 19.262 21.5106Z" fill="black"/>
</g>
<g id="Group_31">
<g id="Group_32">
<path id="Vector_30" fill-rule="evenodd" clip-rule="evenodd" d="M27.7179 28.1942C27.7179 28.1942 33.21 22.3989 36.5704 22.6311C37.1088 22.6683 38.6429 22.8769 40.1249 23.958C41.1942 24.7379 42.1082 25.6364 42.9951 26.5526C43.4289 27.0011 43.6224 27.6301 43.5153 28.2448C43.4084 28.8597 43.0139 29.3863 42.4537 29.6618C41.647 30.0593 40.609 30.439 39.3349 30.6526C39.3349 30.6526 39.5616 31.0624 39.7023 31.3168C39.7758 31.4498 39.7748 31.6113 39.6997 31.7433C39.5837 31.9412 39.3657 32.2424 38.9876 32.5415C38.9876 32.5415 38.966 32.6822 38.9455 32.8162C38.9358 32.8793 38.9014 32.9358 38.8498 32.9733C38.7982 33.0111 38.734 33.0265 38.6709 33.0164C38.5747 33.0012 38.5013 32.9221 38.493 32.8251C38.4883 32.7662 38.4911 32.7039 38.5013 32.6541C38.5013 32.6541 38.7456 30.9717 37.4172 29.5792C37.4172 29.5792 37.0517 29.0062 37.6107 28.6383L39.6999 27.3804L38.3946 26.2826C38.3946 26.2826 38.1149 27.6571 36.5246 27.9584C35.8397 28.0882 34.5474 28.1288 33.7496 26.9136C33.7496 26.9136 29.6002 30.2109 28.5094 31.5146C28.5094 31.5146 28.3433 31.6735 28.1986 31.5706C28.1176 31.5128 28.0105 31.3931 28.1295 31.2116C28.1295 31.2116 27.9342 31.3879 27.7622 31.2703C27.6476 31.1919 27.5592 31.0381 27.6772 30.8574C27.6772 30.8574 27.4776 31.0401 27.2973 30.911C27.176 30.8238 27.1479 30.6702 27.2076 30.4951C27.2076 30.4951 26.9965 30.7046 26.8168 30.5831C26.6911 30.4981 26.6304 30.3214 26.7162 30.1929L27.5136 29.0483L27.7179 28.1942Z" fill="#E9673C"/>
<path id="Vector_31" fill-rule="evenodd" clip-rule="evenodd" d="M38.9285 32.8755C38.9279 32.8687 38.9285 32.862 38.9297 32.8551C39.127 31.8514 38.9495 30.7898 38.9495 30.7898C38.9423 30.7467 38.9714 30.706 39.0145 30.6987C39.0574 30.6915 39.0983 30.7206 39.1054 30.7637C39.1054 30.7637 39.1515 31.04 39.1714 31.4462L39.4418 31.5217C39.4837 31.5336 39.5084 31.577 39.4966 31.6192C39.4849 31.6613 39.4412 31.6858 39.3991 31.6739L39.1779 31.612C39.1843 31.8502 39.1803 32.1212 39.154 32.4013C39.1022 32.4479 39.0469 32.4948 38.9876 32.5416C38.9876 32.5416 38.9661 32.6824 38.9455 32.8164C38.9423 32.8369 38.9366 32.8567 38.9285 32.8755Z" fill="#D9512E"/>
<path id="Vector_32" fill-rule="evenodd" clip-rule="evenodd" d="M29.9861 26.0657C31.886 24.4387 34.596 22.4947 36.5703 22.6311C37.1087 22.6683 38.6427 22.8769 40.1247 23.958C41.194 24.7379 42.108 25.6364 42.9949 26.5526C43.4288 27.0011 43.6223 27.6301 43.5151 28.2448C43.4082 28.8597 43.0137 29.3863 42.4535 29.6618C42.0556 29.8579 41.6016 30.0496 41.0905 30.2192L39.2218 27.6682L39.6998 27.3804L38.3944 26.2826C38.3944 26.2826 38.1147 27.6571 36.5244 27.9584C35.8395 28.0882 34.5472 28.1288 33.7495 26.9136C33.7495 26.9136 32.9351 27.5605 31.933 28.395L29.9861 26.0657Z" fill="#D84B26"/>
<path id="Vector_33" fill-rule="evenodd" clip-rule="evenodd" d="M27.8699 31.3098L28.1008 30.988C28.1261 30.9525 28.1757 30.9444 28.2111 30.9699C28.2465 30.9954 28.2546 31.0448 28.2293 31.0802C28.2293 31.0802 28.1203 31.2252 28.1294 31.2116C28.1294 31.2116 28.0065 31.3227 27.8699 31.3098ZM27.4117 30.9556L27.6497 30.6242C27.675 30.5888 27.7246 30.5807 27.76 30.606C27.7954 30.6315 27.8035 30.6809 27.7782 30.7165L27.6766 30.858C27.6673 30.8663 27.5473 30.9706 27.4117 30.9556ZM26.9225 30.6204L27.1848 30.2547C27.2103 30.2194 27.2597 30.2111 27.2951 30.2365C27.3307 30.262 27.3388 30.3115 27.3133 30.3468L27.206 30.4967C27.1902 30.5117 27.0607 30.6309 26.9225 30.6204Z" fill="#D9512E"/>
</g>
<g id="Group_33">
<g id="Group_34">
<path id="Vector_34" d="M36.3111 22.2839C36.9638 22.2839 37.4928 21.7548 37.4928 21.1022C37.4928 20.4495 36.9638 19.9204 36.3111 19.9204C35.6584 19.9204 35.1293 20.4495 35.1293 21.1022C35.1293 21.7548 35.6584 22.2839 36.3111 22.2839Z" fill="#E9673C"/>
</g>
<path id="Vector_35" fill-rule="evenodd" clip-rule="evenodd" d="M35.7242 20.0763C35.897 19.9771 36.0974 19.9204 36.3109 19.9204C36.9632 19.9204 37.4927 20.4499 37.4927 21.1022C37.4927 21.5399 37.2541 21.9223 36.9001 22.1265L36.5236 21.4698C36.6009 21.4936 36.6902 21.4857 36.7693 21.4407C36.9145 21.358 36.9699 21.1811 36.893 21.046C36.8161 20.9109 36.6356 20.8683 36.4904 20.951C36.4109 20.9962 36.3581 21.0697 36.3396 21.1491L35.7242 20.0763Z" fill="black"/>
</g>
<g id="Group_35">
<path id="Vector_36" fill-rule="evenodd" clip-rule="evenodd" d="M39.6768 27.3609L39.6812 27.3583C39.6812 27.3583 40.0933 27.7087 40.3356 27.9147C40.3499 27.9268 40.3532 27.9471 40.3437 27.9631C40.3343 27.9791 40.3145 27.9861 40.2973 27.9791L39.3294 27.6036L39.7002 27.3804L39.6768 27.3609ZM33.6351 27.0053L34.5668 26.2133C34.5911 26.1925 34.6267 26.1913 34.6526 26.2103C34.6783 26.2293 34.6878 26.2636 34.6751 26.293L34.1921 27.4283C34.0339 27.2887 33.8849 27.1191 33.7499 26.9136C33.7499 26.9136 33.7092 26.9458 33.6351 27.0053ZM38.3972 26.2845C38.4723 25.977 38.55 25.475 38.5206 24.8526C38.5192 24.8259 38.537 24.8019 38.5628 24.7952C38.5887 24.7885 38.6158 24.8009 38.6277 24.8249C38.7961 25.1704 39.0602 25.8788 38.9374 26.739L38.3972 26.2845Z" fill="#76200A"/>
<g id="Group_36">
<path id="Vector_37" fill-rule="evenodd" clip-rule="evenodd" d="M29.9025 43.129C29.9025 43.129 30.1877 42.5161 30.7712 42.4079C31.1244 38.61 31.8124 34.9051 32.9849 31.1019C33.449 29.5992 34.9635 28.681 36.5105 28.9645C36.957 29.0461 37.3781 29.225 37.7087 29.5547C37.8554 29.7011 38.9089 30.9928 38.5112 33.0107C38.3851 33.6499 38.1278 34.402 37.9489 34.9005C37.9489 34.9005 41.0659 38.6279 41.48 39.1233C41.5071 39.1555 41.5107 39.2015 41.4891 39.2379C41.1915 39.7366 39.1552 43.149 39.1552 43.149C39.1552 43.149 38.7976 42.8043 38.9312 42.0913L36.3271 39.2353C36.3271 39.2353 35.004 42.4295 34.7654 43.0051C34.7433 43.0586 34.6913 43.0936 34.6334 43.094C33.9556 43.0992 29.9025 43.129 29.9025 43.129Z" fill="url(#paint0_linear)"/>
</g>
<path id="Vector_38" fill-rule="evenodd" clip-rule="evenodd" d="M30.8026 42.0788L35.0926 42.2156L35.0279 42.3717L30.7874 42.2365C30.7923 42.184 30.7975 42.1312 30.8026 42.0788ZM40.8814 38.4075L38.8564 42.0094L38.7443 41.8865L40.7729 38.2777L40.8814 38.4075ZM37.9922 34.7793C37.9774 34.821 37.963 34.8615 37.9489 34.9007L38.0928 35.0726L36.4665 39.3881L36.3271 39.2353L36.168 39.6196L37.9922 34.7793ZM37.1632 29.1716C37.2227 29.2002 37.281 29.2317 37.3378 29.2659C37.3591 29.3584 37.4044 29.4629 37.4904 29.5707C37.6275 29.7422 38.6696 30.5751 38.4901 32.6258C38.4794 32.748 38.4949 32.8441 38.5287 32.9172C38.5231 32.948 38.5174 32.9795 38.5111 33.0109C38.5035 33.0496 38.4954 33.0888 38.4867 33.1283C38.4753 33.1168 38.464 33.105 38.4533 33.0919C38.368 32.9895 38.313 32.8348 38.3326 32.612C38.5055 30.6362 37.4991 29.8347 37.367 29.6695C37.2215 29.4876 37.1721 29.3123 37.1632 29.1716Z" fill="#D9512E"/>
</g>
</g>
<g id="Group_37">
<path id="Vector_39" fill-rule="evenodd" clip-rule="evenodd" d="M22.1358 34.5133C21.2371 38.239 18.9099 42.4643 18.9099 42.4643C19.342 42.4222 19.8218 43.1539 19.8218 43.1539C19.8218 43.1539 15.4585 43.1539 14.2002 43.1539C14.1258 43.1539 14.0565 43.1166 14.0156 43.0545C13.9747 42.9924 13.9678 42.914 13.9971 42.8458C15.5594 39.1654 16.737 34.5015 16.888 33.7905C17.9262 28.9042 19.7248 28.8576 20.5012 29.0096C20.7218 29.0527 20.9212 29.1159 21.0999 29.1973C22.9593 29.5978 25.8253 30.8921 27.3955 32.0693C27.8883 32.4415 28.1235 33.0637 27.9997 33.6688C27.7311 34.9911 27.1759 36.2102 26.5292 37.5569C27.1682 37.8913 27.3307 38.3048 27.3307 38.3048C27.3307 38.3048 24.03 38.0477 23.2461 37.9868C23.2046 37.9834 23.1664 37.9623 23.1417 37.9287C23.117 37.8953 23.1081 37.8526 23.1174 37.8118C23.2544 37.2084 23.7276 35.1247 23.7276 35.1247C23.1593 34.9725 22.6213 34.7792 22.1358 34.5133Z" fill="url(#paint1_linear)"/>
<path id="Vector_40" fill-rule="evenodd" clip-rule="evenodd" d="M14.6544 41.1868L19.4308 41.4627C19.3971 41.5299 19.3647 41.5939 19.3336 41.6552L14.5819 41.3807C14.6062 41.3162 14.6303 41.2516 14.6544 41.1868ZM26.7922 37.0037L23.3045 36.9871L23.3494 36.7897L26.8841 36.8065C26.8539 36.8719 26.8232 36.9377 26.7922 37.0037ZM20.3881 28.9903C20.4277 28.9958 20.4655 29.0024 20.5012 29.0095C20.7217 29.0526 20.9212 29.1158 21.0998 29.1973C21.1761 29.2137 21.254 29.2316 21.3335 29.251C21.5207 29.3975 21.7159 29.5898 21.8956 29.8416C22.4726 30.6506 22.8932 32.0846 22.3062 34.6024C22.2486 34.5735 22.1919 34.5439 22.1358 34.5133C22.096 34.6779 22.0535 34.8435 22.0087 35.0094C22.0067 34.9963 22.0073 34.9827 22.0109 34.9692C22.7234 32.2799 22.3233 30.7817 21.7347 29.9565C21.1619 29.1532 20.4179 29.0014 20.4179 29.0014C20.4071 28.9992 20.3971 28.9954 20.3881 28.9903Z" fill="#5300A6"/>
<path id="Vector_41" fill-rule="evenodd" clip-rule="evenodd" d="M23.5084 35.0636V35.0626C23.5084 35.0626 24.1364 35.2462 24.7606 35.3253C24.7938 35.3284 24.8201 35.3553 24.8224 35.3887C24.825 35.4221 24.8033 35.4526 24.7706 35.4607C24.3795 35.5603 23.8104 35.705 23.5825 35.7629L23.7274 35.1249C23.6539 35.1051 23.5809 35.0847 23.5084 35.0636Z" fill="#5300A6"/>
</g>
<g id="Group_38">
<g id="Group_39">
<path id="Vector_42" fill-rule="evenodd" clip-rule="evenodd" d="M17.1971 29.9215C17.1971 29.9215 17.2674 30.1008 17.3869 30.2138C17.4545 30.2779 17.5878 30.3065 17.7071 30.2267C17.933 30.0755 18.1004 29.6969 18.0626 29.2876C18.0528 29.1816 17.7622 28.3218 17.0104 27.8524L17.7071 27.4529C17.7071 27.4529 19.2897 29.2536 21.5175 27.7053C21.5175 27.7053 23.5607 29.288 26.6032 30.4085L27.5556 29.0536C27.5556 29.0536 28.731 28.8302 28.9467 28.4906C28.9793 28.4394 29.0172 28.3035 28.768 28.2839C28.6553 28.275 27.7904 28.159 26.2599 27.3254C25.8401 27.0966 24.4571 26.3945 22.6133 24.5637C22.2255 24.1786 19.7631 21.6993 15.9677 24.5637C15.3016 25.0664 12.6763 27.1013 11.4667 29.0215C10.965 29.8201 11.0585 30.8552 11.695 31.551C11.6949 31.551 11.6949 31.551 11.6949 31.551C12.2772 32.1874 13.228 32.3242 13.966 31.8775C15.2969 31.0718 17.1971 29.9215 17.1971 29.9215Z" fill="#8673FF"/>
<path id="Vector_43" fill-rule="evenodd" clip-rule="evenodd" d="M17.177 29.9336L17.4813 29.7304C17.5275 29.7015 17.5885 29.7155 17.6175 29.7618C17.6464 29.808 17.6324 29.8689 17.5862 29.898L17.2843 30.0869C17.2283 30.0006 17.1972 29.9213 17.1972 29.9213L17.177 29.9336ZM27.548 29.0641L27.5415 29.0735C27.5336 29.0749 27.5294 29.0759 27.5294 29.0759L27.3806 29.2876C27.2128 29.3107 27.073 29.3289 27.073 29.3289C27.0189 29.3358 26.9693 29.2975 26.9623 29.2433C26.9554 29.1894 26.9938 29.1398 27.0477 29.1328C27.0477 29.1328 27.3118 29.0988 27.548 29.0641Z" fill="#5300A6"/>
</g>
<g id="Group_40">
<path id="Vector_44" fill-rule="evenodd" clip-rule="evenodd" d="M16.5072 30.336L13.9661 31.8763C13.2283 32.3236 12.2772 32.1872 11.6947 31.5506C11.6947 31.5506 11.6947 31.5506 11.6948 31.5506C11.0585 30.855 10.9651 29.8203 11.4665 29.0221C12.676 27.1019 15.3017 25.0664 15.9679 24.5637C19.7633 21.6993 22.2257 24.1786 22.6135 24.5637C24.4573 26.3945 25.8403 27.0966 26.2601 27.3254C26.4755 27.4427 26.6775 27.5458 26.8663 27.6364L25.3702 29.9088C23.0215 28.8703 21.5177 27.7053 21.5177 27.7053C19.2899 29.2536 17.7073 27.4529 17.7073 27.4529L17.0089 27.8564C16.1705 27.2466 15.1012 27.969 15.1012 27.969L16.5072 30.336Z" fill="#9534F7"/>
<path id="Vector_45" fill-rule="evenodd" clip-rule="evenodd" d="M15.1183 27.9583C15.1072 27.9654 15.1014 27.9691 15.1014 27.9691L15.2018 28.1381C14.3531 28.6192 13.5022 29.1369 12.6452 29.6682C12.5989 29.6968 12.5379 29.6826 12.5092 29.6362C12.4804 29.5899 12.4947 29.5288 12.5411 29.5002C13.405 28.9645 14.2628 28.4429 15.1183 27.9583ZM21.4724 27.7367C21.6282 27.5874 22.1737 26.9957 22.3492 25.885C22.353 25.8611 22.3732 25.8432 22.3973 25.8424C22.4216 25.8414 22.4429 25.8578 22.4485 25.8813C22.4977 26.1658 22.5394 26.6531 22.4127 27.2473C22.3542 27.5208 22.2601 27.8173 22.1146 28.1269C21.7284 27.8685 21.5179 27.7055 21.5179 27.7055C21.5029 27.7159 21.4877 27.7264 21.4724 27.7367ZM17.175 27.7606C16.9971 27.3447 17.0167 26.969 17.0577 26.7433C17.0642 26.7085 17.092 26.6814 17.1271 26.6759C17.1622 26.6701 17.197 26.6873 17.2139 26.7185C17.4111 27.0907 17.6 27.3325 17.7058 27.454L17.175 27.7606Z" fill="#5000B6"/>
</g>
</g>
<g id="Group_41">
<path id="Vector_46" fill-rule="evenodd" clip-rule="evenodd" d="M29.5147 29.6318C29.4315 29.5316 29.4212 29.3848 29.4989 29.2725C29.5922 29.1373 29.7778 29.1033 29.913 29.1968L30.3708 29.513C30.5058 29.6063 30.5398 29.7919 30.4463 29.9271C30.3613 30.0503 30.1996 30.0892 30.0693 30.0246C30.1417 30.1224 30.1476 30.2592 30.0747 30.3647C29.9913 30.4857 29.833 30.5242 29.7051 30.4612C29.7764 30.5573 29.7825 30.6921 29.7106 30.796C29.6288 30.9146 29.4736 30.9526 29.3479 30.8911C29.4185 30.9858 29.4244 31.1186 29.3538 31.2208C29.2651 31.3493 29.0888 31.3815 28.9603 31.2927L28.5936 31.0393C28.4654 30.9506 28.4329 30.7743 28.5217 30.646C28.5978 30.5361 28.7379 30.4966 28.8573 30.5432C28.7767 30.4466 28.7668 30.3043 28.8417 30.1957C28.919 30.0839 29.0617 30.0437 29.1831 30.0914C29.1012 29.9929 29.0911 29.8483 29.1674 29.738C29.2461 29.6241 29.3912 29.5834 29.5147 29.6318Z" fill="#ABD1CE"/>
<path id="Vector_47" fill-rule="evenodd" clip-rule="evenodd" d="M28.7954 30.3082L29.6016 30.8907C29.5234 30.9292 29.4295 30.9312 29.3481 30.8913C29.3534 30.8984 28.8531 30.5418 28.8575 30.5434C28.8027 30.4778 28.7806 30.391 28.7954 30.3082ZM29.1188 29.8619C29.1204 29.8629 29.1217 29.8639 29.1231 29.8649L29.9468 30.4598C29.9493 30.4616 29.9517 30.4636 29.9539 30.4657C29.8762 30.5005 29.7847 30.5005 29.7052 30.4614C29.7135 30.4727 29.1733 30.0876 29.1832 30.0916C29.1298 30.0273 29.1069 29.9433 29.1188 29.8619ZM29.4502 29.3936C29.4538 29.3954 29.4572 29.3976 29.4605 29.4L30.2842 29.9949C30.2982 30.005 30.3079 30.0188 30.3128 30.0341C30.2357 30.0651 30.147 30.0633 30.0695 30.0248C30.0742 30.0313 29.5125 29.631 29.5149 29.632C29.4595 29.5652 29.4364 29.4778 29.4502 29.3936Z" fill="#8ABBB8"/>
</g>
</g>
<g id="CASE">
<path id="Vector_48" fill-rule="evenodd" clip-rule="evenodd" d="M38.4401 39.3704C38.4401 39.2447 38.3383 39.1429 38.2128 39.1429C37.2534 39.1429 33.5415 39.1429 32.5823 39.1429C32.4568 39.1429 32.355 39.2447 32.355 39.3704C32.355 40.2379 32.355 43.2919 32.355 43.2919H38.4401V39.3704Z" fill="black"/>
<path id="Vector_49" fill-rule="evenodd" clip-rule="evenodd" d="M34.2662 39.1431V38.5955C34.2662 38.4924 34.35 38.4088 34.4532 38.4088H36.3416C36.4448 38.4088 36.5284 38.4924 36.5284 38.5955V39.1431H36.1548V38.7823H34.64V39.1431H34.2662Z" fill="black"/>
<path id="Vector_50" fill-rule="evenodd" clip-rule="evenodd" d="M38.3842 39.2212C38.4189 39.2611 38.4401 39.3133 38.4401 39.3704V39.4232L35.6494 41.3719C35.4982 41.4775 35.2969 41.4776 35.1455 41.3723L32.355 39.4297V39.3704C32.355 39.3153 32.3746 39.2647 32.4072 39.2253L35.2586 41.21C35.342 41.2681 35.4529 41.2679 35.5361 41.2098L38.3842 39.2212Z" fill="white"/>
</g>
</g>
</g>
</g>
<defs>
<linearGradient id="paint0_linear" x1="35.7138" y1="36.0276" x2="28.5538" y2="19.3193" gradientUnits="userSpaceOnUse">
<stop stop-color="#E9673C"/>
<stop offset="1" stop-color="#FFBDB4"/>
</linearGradient>
<linearGradient id="paint1_linear" x1="22.1606" y1="39.2565" x2="32.7978" y2="31.0492" gradientUnits="userSpaceOnUse">
<stop stop-color="#9B4DFF"/>
<stop offset="0.52" stop-color="#6C1BF1"/>
<stop offset="1" stop-color="#240052"/>
</linearGradient>
</defs>
</svg>
