<svg width="24" height="24" viewBox="0 0 24 24" fill="none" xmlns="http://www.w3.org/2000/svg">
<g id="recharge 1">
<g id="Group">
<g id="6   FINANCES">
<g id="DEBIT CARD">
<g id="Group_2">
<g id="Group_3">
<path id="Vector" fill-rule="evenodd" clip-rule="evenodd" d="M10.2399 13.7395C10.2399 13.5197 10.0613 13.3412 9.84142 13.3412H4.14982C3.92991 13.3412 3.75137 13.5197 3.75137 13.7395V16.898C3.75137 17.1179 3.92991 17.2964 4.14982 17.2964H9.84142C10.0613 17.2964 10.2399 17.1179 10.2399 16.898V13.7395Z" fill="#8ABBB8"/>
</g>
<path id="Vector_2" fill-rule="evenodd" clip-rule="evenodd" d="M4.87699 16.5259H4.20739V16.9993H4.87699V16.5259ZM7.30078 15.6412H4.20584V16.3129H7.30078V15.6412ZM9.76412 15.6412H8.17551V16.3129H9.76412V15.6412Z" fill="white"/>
<path id="Vector_3" d="M10.2398 14.4441H3.75137V15.3734H10.2398V14.4441Z" fill="black"/>
</g>
<path id="Vector_4" fill-rule="evenodd" clip-rule="evenodd" d="M4.77086 16.0575C4.76827 16.0149 4.77306 15.9678 4.78255 15.9239C4.79724 15.8559 4.82376 15.796 4.84848 15.7695C4.86987 15.7466 4.89326 15.7418 4.91276 15.7484C4.94064 15.7578 4.95712 15.7828 4.96016 15.8183C4.96453 15.8691 4.93848 15.9463 4.92884 15.9683C4.9065 16.0193 4.87815 16.0574 4.8455 16.0874C4.85016 16.1095 4.85811 16.1284 4.87302 16.1396C4.88883 16.1516 4.91148 16.1525 4.94231 16.1436C4.95865 16.1388 4.99226 16.1177 5.02488 16.0917C5.01939 16.0589 5.02519 16.0238 5.03806 15.9977C5.05791 15.9576 5.09307 15.9398 5.12573 15.9508C5.14789 15.9583 5.15994 15.9711 5.16617 15.985C5.17431 16.0032 5.17272 16.0274 5.15748 16.0536C5.14726 16.0712 5.13022 16.0909 5.11007 16.1103C5.12012 16.1183 5.13491 16.1223 5.15482 16.1219C5.17951 16.1215 5.21694 16.1025 5.25806 16.0807C5.33121 16.0421 5.41277 15.9922 5.46053 15.9793C5.50196 15.968 5.52847 15.9817 5.53945 16.0051C5.54803 16.0234 5.55604 16.0366 5.56432 16.0454C5.5683 16.0497 5.57175 16.0527 5.57574 16.0535C5.58109 16.0545 5.58627 16.0519 5.59192 16.0493C5.59921 16.0458 5.60665 16.0411 5.61442 16.0359C5.66829 16.0002 5.73333 15.9502 5.82218 15.9804C5.85888 15.9929 5.86888 16.0268 5.86242 16.0687C5.86058 16.0807 5.85766 16.0932 5.85585 16.1048C5.85557 16.1067 5.85535 16.1089 5.8552 16.111C5.8595 16.1107 5.86425 16.1099 5.8693 16.1089C5.88292 16.1065 5.89795 16.1022 5.91314 16.0974C5.94919 16.0864 5.98604 16.074 6.01125 16.0724C6.27865 16.055 6.54784 16.0595 6.81493 16.0366C6.83426 16.035 6.85128 16.0494 6.85294 16.0687C6.8546 16.088 6.84024 16.105 6.82092 16.1067C6.55335 16.1296 6.28368 16.1251 6.0158 16.1425C5.98975 16.1442 5.94963 16.1606 5.91316 16.1707C5.88016 16.1799 5.84928 16.1838 5.82817 16.1783C5.79081 16.1686 5.77964 16.1357 5.7867 16.0922C5.78835 16.0821 5.79074 16.0713 5.79248 16.061C5.79326 16.0563 5.79364 16.0496 5.7938 16.0452C5.76153 16.0361 5.73448 16.0447 5.71071 16.0574C5.68972 16.0686 5.67088 16.0829 5.65327 16.0945C5.62132 16.1157 5.59114 16.1278 5.5628 16.1226C5.53712 16.1177 5.50848 16.0986 5.48169 16.0468C5.47706 16.0479 5.47098 16.0495 5.466 16.0513C5.44938 16.0576 5.42983 16.0672 5.40871 16.0784C5.33895 16.1153 5.25374 16.1675 5.19638 16.1849C5.18134 16.1896 5.16774 16.192 5.15616 16.1922C5.10902 16.1931 5.07704 16.1778 5.05601 16.1559C5.01824 16.1842 4.9806 16.2057 4.96186 16.211C4.90324 16.2281 4.8608 16.2184 4.83073 16.1957C4.81065 16.1806 4.7956 16.1588 4.78556 16.1321C4.77559 16.1381 4.76538 16.1438 4.75496 16.1492C4.69039 16.1824 4.61734 16.2033 4.54606 16.2391C4.52873 16.2478 4.5076 16.2408 4.49889 16.2235C4.49018 16.2061 4.49719 16.185 4.51452 16.1763C4.57206 16.1474 4.63071 16.1281 4.68524 16.1044C4.7155 16.0912 4.74445 16.0766 4.77086 16.0575ZM4.89044 15.8303C4.88068 15.846 4.87149 15.8677 4.86358 15.8924C4.85891 15.907 4.85473 15.9226 4.85125 15.9387C4.84841 15.9519 4.84601 15.9653 4.84421 15.9788C4.85152 15.9671 4.85829 15.9542 4.86449 15.94C4.87104 15.9251 4.88775 15.8781 4.89017 15.8396C4.89037 15.8364 4.89047 15.8333 4.89044 15.8303Z" fill="black"/>
</g>
<g id="CHECK">
<g id="Group_4">
<path id="Vector_5" d="M21.5916 12.0347H11.8965V17.2904H21.5916V12.0347Z" fill="#E4E4E6"/>
</g>
<g id="Group_5">
<g id="Group_6">
<path id="Vector_6" fill-rule="evenodd" clip-rule="evenodd" d="M18.5506 16.7009C18.5864 16.5699 18.6437 16.4386 18.7232 16.3287C18.739 16.3068 18.7658 16.2642 18.7966 16.2361C18.8252 16.21 18.8578 16.1965 18.8893 16.2035C18.9257 16.2114 18.9444 16.238 18.9483 16.2758C18.9541 16.3318 18.9187 16.4193 18.905 16.444C18.8378 16.5655 18.7283 16.6644 18.612 16.7442C18.6069 16.7657 18.6035 16.7881 18.6051 16.8088C18.6071 16.8352 18.6187 16.8582 18.6512 16.8673C18.7175 16.8857 18.7911 16.8666 18.8615 16.8312C18.8885 16.8177 18.915 16.8017 18.9403 16.7841C18.941 16.7732 18.942 16.763 18.9431 16.7549C18.9577 16.6387 19.0236 16.5295 19.1027 16.4454C19.1151 16.4322 19.1561 16.3854 19.1897 16.3714C19.2185 16.3594 19.2443 16.3636 19.2632 16.3877C19.2807 16.41 19.2848 16.4416 19.2766 16.4769C19.2627 16.5364 19.2131 16.6095 19.1925 16.638C19.1512 16.6948 19.0866 16.7622 19.0114 16.8193C19.012 16.8229 19.013 16.8265 19.0143 16.8296C19.015 16.8315 19.0155 16.8335 19.0173 16.8341C19.0492 16.8462 19.0837 16.8328 19.1174 16.8129C19.1807 16.7756 19.24 16.7114 19.2771 16.6772C19.2932 16.6623 19.3197 16.6345 19.3476 16.6177C19.3746 16.6015 19.4032 16.5954 19.4285 16.6044C19.4597 16.6154 19.4713 16.6369 19.4713 16.6649C19.4713 16.6811 19.4655 16.7015 19.4569 16.7229C19.4493 16.742 19.4394 16.7625 19.4337 16.7816C19.4318 16.7877 19.4304 16.7936 19.4302 16.7991C19.4299 16.8029 19.4314 16.806 19.4358 16.8078C19.4556 16.8156 19.4728 16.8104 19.4887 16.7999C19.5116 16.7846 19.5322 16.76 19.5528 16.7351C19.5827 16.699 19.6124 16.6624 19.6444 16.6417C19.6724 16.6235 19.7022 16.616 19.7347 16.6241C19.7812 16.6357 19.7899 16.6743 19.7776 16.7255C19.7738 16.7418 19.7681 16.7597 19.7654 16.7764C19.7638 16.7864 19.7603 16.7966 19.7703 16.8011C19.7857 16.8079 19.8003 16.8047 19.8145 16.7983C19.8281 16.7923 19.8414 16.7833 19.8547 16.7739C19.8792 16.7568 19.9035 16.738 19.9283 16.726C19.949 16.7159 19.9703 16.7101 19.992 16.7107C20.0105 16.7114 20.0226 16.7172 20.031 16.7242C20.0414 16.7328 20.0474 16.7441 20.0498 16.7578C20.0511 16.765 20.0512 16.7732 20.0506 16.7818C20.0503 16.7864 20.05 16.7934 20.0497 16.7985C20.1215 16.8078 20.2017 16.7854 20.2734 16.7806C20.3956 16.7724 20.519 16.7796 20.6406 16.7686C20.6599 16.7669 20.677 16.7811 20.6787 16.8005C20.6805 16.8198 20.6662 16.8369 20.6469 16.8387C20.5247 16.8497 20.4008 16.8425 20.2781 16.8507C20.2001 16.8559 20.1125 16.879 20.0349 16.8673C20.0171 16.8647 20.0053 16.8578 19.9971 16.8498C19.9878 16.8407 19.9825 16.8294 19.9802 16.8165C19.9787 16.8077 19.9789 16.7978 19.9796 16.7879C19.9797 16.7861 19.9799 16.7839 19.98 16.7817C19.9662 16.784 19.9529 16.7917 19.9395 16.8003C19.9164 16.8151 19.8937 16.8336 19.8704 16.8479C19.8294 16.8731 19.787 16.8854 19.7417 16.8653C19.7091 16.8508 19.6963 16.8262 19.6943 16.7967C19.6928 16.7766 19.6978 16.7532 19.7038 16.7305C19.7065 16.72 19.7095 16.7097 19.7113 16.7002C19.7118 16.6976 19.7121 16.6942 19.7123 16.6913C19.6974 16.6899 19.6844 16.6982 19.6714 16.7089C19.6492 16.7273 19.6284 16.7541 19.6069 16.7799C19.5817 16.8104 19.5556 16.8397 19.5275 16.8585C19.4923 16.8818 19.4539 16.8904 19.4101 16.8732C19.3707 16.8577 19.3584 16.8298 19.3599 16.7962C19.3609 16.7739 19.3703 16.7476 19.3812 16.7218C19.3864 16.7094 19.3918 16.6972 19.3959 16.6857C19.3975 16.6812 19.3989 16.6751 19.3999 16.6705C19.3976 16.671 19.3952 16.6722 19.3928 16.6732C19.3864 16.676 19.38 16.6801 19.3739 16.6847C19.3542 16.6991 19.3364 16.718 19.3247 16.7288C19.285 16.7655 19.2209 16.8334 19.1532 16.8734C19.0995 16.9052 19.0433 16.9191 18.9925 16.8999C18.9734 16.8927 18.9599 16.8789 18.9514 16.861C18.9323 16.873 18.9128 16.8841 18.8931 16.894C18.806 16.9377 18.7143 16.9578 18.6324 16.935C18.5571 16.9141 18.5337 16.8569 18.5349 16.794C18.5271 16.7987 18.5193 16.8033 18.5116 16.8079C18.4611 16.8377 18.4062 16.8749 18.3497 16.8926C18.3501 16.8924 18.3516 16.8919 18.3516 16.8919C18.3516 16.8919 18.3426 16.895 18.3385 16.8953C18.3322 16.896 18.3268 16.8951 18.3228 16.8937C18.3148 16.891 18.309 16.8863 18.3048 16.8805C18.2936 16.8647 18.2974 16.8427 18.3132 16.8315C18.3182 16.828 18.3238 16.8259 18.3294 16.8252C18.3807 16.8091 18.43 16.7744 18.4758 16.7474C18.5008 16.7328 18.5258 16.7173 18.5506 16.7009ZM18.3606 16.8377L18.361 16.8384L18.361 16.8382L18.3606 16.8377ZM18.3593 16.8363L18.3598 16.8368L18.3597 16.8367L18.3593 16.8363ZM18.358 16.835L18.3585 16.8354L18.3583 16.8352L18.358 16.835ZM18.3567 16.8338L18.3569 16.834L18.3567 16.8338L18.3567 16.8338ZM19.2105 16.4407C19.2038 16.4451 19.1946 16.4515 19.1888 16.4568C19.1732 16.4714 19.1598 16.4873 19.1539 16.4936C19.0945 16.5568 19.0426 16.6354 19.0209 16.7208C19.0677 16.6793 19.1076 16.6353 19.1356 16.5967C19.1509 16.5756 19.1851 16.5267 19.202 16.4809C19.2066 16.4683 19.2101 16.456 19.2104 16.4449C19.2105 16.4435 19.2106 16.4421 19.2105 16.4407ZM18.6456 16.6325C18.7248 16.5697 18.7959 16.4962 18.8435 16.4101C18.8527 16.3936 18.8751 16.3413 18.8784 16.2992C18.8789 16.2925 18.8789 16.2862 18.8781 16.2805C18.8775 16.2768 18.8778 16.2729 18.8742 16.2721C18.8696 16.271 18.8653 16.2731 18.8609 16.2755C18.8551 16.2786 18.8495 16.2831 18.8439 16.288C18.817 16.3127 18.7941 16.3506 18.7801 16.3699C18.7231 16.4487 18.6785 16.5393 18.6456 16.6325Z" fill="black"/>
</g>
<g id="Group_7">
<path id="Vector_7" fill-rule="evenodd" clip-rule="evenodd" d="M17.3087 15.6237V15.54C17.3087 15.508 17.3323 15.482 17.3614 15.482C17.3905 15.482 17.4141 15.508 17.4141 15.54V15.6751C17.4141 15.707 17.3905 15.733 17.3614 15.733H17.3613C17.354 15.7373 17.3457 15.7396 17.3368 15.7396H12.7566C12.7474 15.7396 12.7387 15.737 12.7311 15.7325C12.7021 15.7323 12.6787 15.7064 12.6787 15.6745V15.54C12.6787 15.508 12.7023 15.482 12.7314 15.482C12.7605 15.482 12.7841 15.508 12.7841 15.54V15.6237H17.3087ZM19.1277 14.3679V14.259C19.1277 14.227 19.1513 14.201 19.1804 14.201C19.2095 14.201 19.2331 14.227 19.2331 14.259V14.394C19.2331 14.4066 19.2295 14.4182 19.2233 14.4277C19.2224 14.4588 19.1992 14.4838 19.1706 14.4838H12.7352C12.7346 14.4838 12.7339 14.4838 12.7333 14.4838C12.7326 14.4838 12.732 14.4838 12.7314 14.4838C12.7023 14.4838 12.6787 14.4578 12.6787 14.4258V14.2913C12.6787 14.2594 12.7023 14.2334 12.7314 14.2334C12.7605 14.2334 12.7841 14.2594 12.7841 14.2913V14.3679H19.1277ZM12.7009 13.2658L12.7047 13.1308C12.7056 13.0988 12.73 13.0737 12.7591 13.0747C12.7881 13.0757 12.811 13.1025 12.8101 13.1344L12.808 13.2097H19.1401V13.1326C19.1401 13.1007 19.1638 13.0747 19.1929 13.0747C19.2219 13.0747 19.2456 13.1007 19.2456 13.1326V13.2677C19.2456 13.2997 19.2219 13.3257 19.1929 13.3257C19.1922 13.3257 19.1915 13.3257 19.1909 13.3257C19.1903 13.3257 19.1897 13.3257 19.1891 13.3257H12.7538C12.7535 13.3257 12.7532 13.3257 12.7529 13.3257H12.7526C12.7474 13.3256 12.7424 13.3246 12.7376 13.323C12.7294 13.3201 12.722 13.3151 12.7161 13.3085L12.7158 13.3082L12.7156 13.3079L12.7154 13.3077C12.7096 13.301 12.7052 13.2927 12.7028 13.2836C12.7015 13.2783 12.7008 13.2727 12.7009 13.267V13.2667C12.7009 13.2664 12.7009 13.2661 12.7009 13.2658Z" fill="white"/>
</g>
<path id="Vector_8" fill-rule="evenodd" clip-rule="evenodd" d="M20.6333 15.7958V15.4819C20.6333 15.4528 20.6569 15.4292 20.686 15.4292C20.7151 15.4292 20.7387 15.4528 20.7387 15.4819V15.8485C20.7387 15.8777 20.7152 15.9012 20.686 15.9012H18.0734C18.0442 15.9012 18.0207 15.8777 18.0207 15.8485V15.4819C18.0207 15.4528 18.0443 15.4292 18.0734 15.4292C18.1025 15.4292 18.1261 15.4528 18.1261 15.4819V15.7958H20.6333Z" fill="white"/>
<path id="Vector_9" fill-rule="evenodd" clip-rule="evenodd" d="M18.1261 15.1042V15.4819C18.1261 15.511 18.1025 15.5346 18.0734 15.5346C18.0443 15.5346 18.0207 15.511 18.0207 15.4819V15.0515C18.0207 15.0224 18.0442 14.9988 18.0734 14.9988H20.686C20.7152 14.9988 20.7387 15.0224 20.7387 15.0515V15.4819C20.7387 15.511 20.7151 15.5346 20.686 15.5346C20.6569 15.5346 20.6333 15.511 20.6333 15.4819V15.1042H18.1261Z" fill="white"/>
<path id="Vector_10" fill-rule="evenodd" clip-rule="evenodd" d="M18.3156 15.6836H18.5839C18.613 15.6836 18.6366 15.6599 18.6366 15.6309C18.6366 15.6018 18.613 15.5782 18.5839 15.5782H18.3156C18.2865 15.5782 18.2628 15.6018 18.2628 15.6309C18.2628 15.6599 18.2865 15.6836 18.3156 15.6836ZM19.2456 15.6836H19.5139C19.543 15.6836 19.5666 15.6599 19.5666 15.6309C19.5666 15.6018 19.543 15.5782 19.5139 15.5782H19.2456C19.2165 15.5782 19.1929 15.6018 19.1929 15.6309C19.1929 15.6599 19.2165 15.6836 19.2456 15.6836ZM18.7805 15.6836H19.0489C19.078 15.6836 19.1016 15.6599 19.1016 15.6309C19.1016 15.6018 19.078 15.5782 19.0489 15.5782H18.7805C18.7515 15.5782 18.7278 15.6018 18.7278 15.6309C18.7278 15.6599 18.7515 15.6836 18.7805 15.6836ZM19.7106 15.6836H19.979C20.008 15.6836 20.0317 15.6599 20.0317 15.6309C20.0317 15.6018 20.008 15.5782 19.979 15.5782H19.7106C19.6815 15.5782 19.6579 15.6018 19.6579 15.6309C19.6579 15.6599 19.6815 15.6836 19.7106 15.6836ZM20.1756 15.6836H20.4439C20.473 15.6836 20.4966 15.6599 20.4966 15.6309C20.4966 15.6018 20.473 15.5782 20.4439 15.5782H20.1756C20.1466 15.5782 20.1229 15.6018 20.1229 15.6309C20.1229 15.6599 20.1466 15.6836 20.1756 15.6836Z" fill="white"/>
</g>
<g id="Group_8">
<path id="Vector_11" d="M20.3741 13.8794C20.7821 13.8794 21.1128 13.5487 21.1128 13.1407C21.1128 12.7327 20.7821 12.402 20.3741 12.402C19.9661 12.402 19.6354 12.7327 19.6354 13.1407C19.6354 13.5487 19.9661 13.8794 20.3741 13.8794Z" fill="white"/>
</g>
<path id="Vector_12" fill-rule="evenodd" clip-rule="evenodd" d="M20.3495 12.7451L20.3545 12.4023C20.361 12.4021 20.3675 12.402 20.374 12.402C20.3912 12.402 20.408 12.4026 20.4248 12.4038L20.4198 12.7459C20.4827 12.7451 20.5482 12.74 20.6156 12.729C20.5713 12.6011 20.5171 12.4909 20.4708 12.4083C20.5011 12.4123 20.531 12.4181 20.5601 12.4256C20.6023 12.5058 20.6475 12.6045 20.6854 12.7156C20.7611 12.6988 20.8388 12.6745 20.9175 12.6406C20.9341 12.6585 20.9497 12.6773 20.9644 12.6968C20.8771 12.7359 20.7909 12.7639 20.7068 12.7827C20.712 12.8001 20.7169 12.8177 20.7216 12.8356C20.7471 12.9323 20.7652 13.0359 20.7705 13.1432L21.1127 13.1534C21.1123 13.1771 21.1107 13.2005 21.1082 13.2236L20.772 13.2135C20.7713 13.3329 20.7536 13.4559 20.7116 13.5786C20.776 13.5967 20.8415 13.6207 20.9075 13.6516C20.89 13.6698 20.8715 13.6872 20.8522 13.7036C20.7964 13.679 20.7411 13.6596 20.6866 13.6444C20.6575 13.7144 20.62 13.7839 20.5728 13.8523C20.5394 13.8617 20.5049 13.8687 20.4697 13.8733C20.5332 13.7928 20.5814 13.7104 20.617 13.6273C20.545 13.6118 20.4747 13.6036 20.4071 13.6009L20.4029 13.8788C20.3934 13.8792 20.3837 13.8794 20.374 13.8794C20.3602 13.8794 20.3464 13.879 20.3327 13.8783L20.3368 13.6C20.2525 13.6012 20.173 13.6105 20.1004 13.6244C20.139 13.704 20.1893 13.7858 20.2532 13.8695C20.2171 13.8636 20.182 13.855 20.1479 13.844C20.1 13.7745 20.061 13.7064 20.0298 13.6398C19.9728 13.6536 19.9212 13.6697 19.876 13.6861C19.8571 13.6688 19.8391 13.6506 19.8222 13.6314C19.8734 13.6118 19.9337 13.5918 20.0016 13.5749C19.951 13.4492 19.9277 13.3295 19.9233 13.2176C19.9229 13.2077 19.9227 13.198 19.9226 13.1883L19.6364 13.1798C19.6358 13.1669 19.6354 13.1538 19.6354 13.1407C19.6354 13.1303 19.6356 13.1199 19.636 13.1095L19.9244 13.1181C19.9324 12.9868 19.9658 12.8677 20.0103 12.7635C19.9185 12.7391 19.8436 12.7104 19.7909 12.6875C19.8059 12.6681 19.822 12.6496 19.8389 12.6317C19.8896 12.6529 19.9581 12.6778 20.04 12.699C20.0995 12.5796 20.1712 12.4836 20.2293 12.4162C20.2643 12.4092 20.3002 12.4047 20.3367 12.4029C20.281 12.4593 20.186 12.5674 20.1099 12.7154C20.1823 12.7304 20.2629 12.7417 20.3495 12.7451ZM20.7014 13.2114L20.4129 13.2029L20.4081 13.5308C20.4836 13.5337 20.5621 13.5431 20.6427 13.5611C20.6836 13.4436 20.7008 13.3257 20.7014 13.2114ZM19.9929 13.1904C19.993 13.1985 19.9932 13.2067 19.9936 13.2149C19.9977 13.3227 20.0211 13.4379 20.071 13.5591C20.1523 13.5425 20.2421 13.5313 20.3378 13.53L20.3428 13.2008L19.9929 13.1904ZM20.6375 12.7964C20.5621 12.8094 20.4888 12.8152 20.4187 12.816L20.414 13.1326L20.6998 13.1411C20.6946 13.0407 20.6775 12.9439 20.6537 12.8535C20.6486 12.8342 20.6432 12.8152 20.6375 12.7964ZM20.079 12.7802C20.0355 12.8795 20.0026 12.9939 19.9947 13.1202L20.3438 13.1305L20.3485 12.815C20.2503 12.8113 20.1596 12.7978 20.079 12.7802Z" fill="#E4E4E6"/>
</g>
<g id="PIGGY BANK">
<g id="Group_9">
<g id="Group_10">
<path id="Vector_13" fill-rule="evenodd" clip-rule="evenodd" d="M14.0159 15.7646C14.0379 16.2022 14.108 16.5746 14.226 16.9183C14.3032 17.1453 14.5165 17.298 14.7563 17.298C14.7563 17.2983 14.7563 17.2983 14.7563 17.2983C14.9583 17.2983 15.1405 17.1767 15.218 16.9901C15.3522 16.6678 15.4652 16.272 15.5461 15.7646H14.0159Z" fill="#F27F71"/>
</g>
<path id="Vector_14" fill-rule="evenodd" clip-rule="evenodd" d="M14.0302 15.9705C14.0287 15.9535 14.0273 15.9365 14.0259 15.9193L14.4238 15.9267C14.4238 15.9267 14.5151 16.2311 14.5987 16.5014C14.7103 16.8619 14.8168 17.1014 15.0475 17.2048C15.0255 17.2206 15.0022 17.2345 14.978 17.2465C14.9039 17.2735 14.8123 17.2983 14.7563 17.2983C14.7563 17.2983 14.7563 17.2983 14.7563 17.2981C14.7548 17.2981 14.7533 17.2981 14.7518 17.2981C14.743 17.298 14.7343 17.2977 14.7256 17.2973L14.7228 17.2971C14.7191 17.2968 14.7153 17.2966 14.7116 17.2963L14.7089 17.2961L14.7062 17.2959L14.7034 17.2956C14.7025 17.2955 14.7016 17.2954 14.7006 17.2953L14.6991 17.2952C14.6959 17.2949 14.6927 17.2944 14.6895 17.2941C14.6877 17.2939 14.686 17.2937 14.6842 17.2935L14.6814 17.2931C14.6769 17.2924 14.6724 17.2918 14.6679 17.2911L14.6651 17.2907C14.6643 17.2905 14.6633 17.2903 14.6624 17.2901L14.6597 17.2897C14.6588 17.2895 14.6579 17.2894 14.657 17.2893L14.6544 17.2887C14.6514 17.2882 14.6485 17.2877 14.6455 17.2871C14.6308 17.2841 14.6163 17.2806 14.6021 17.2764C14.5973 17.2751 14.5927 17.2737 14.5879 17.2722C14.5818 17.2703 14.5756 17.2682 14.5696 17.2661C14.5673 17.2653 14.565 17.2644 14.5627 17.2636L14.5576 17.2617C14.5223 17.2482 14.4886 17.2314 14.4569 17.2113L14.4524 17.2084C14.4506 17.2073 14.4489 17.2062 14.4472 17.205L14.4434 17.2025L14.4389 17.1995L14.4375 17.1985C14.4226 17.1882 14.4082 17.1772 14.3944 17.1654C14.3896 17.1614 14.3848 17.1572 14.3802 17.153L14.3762 17.1493L14.3723 17.1457C14.3709 17.1445 14.3697 17.1433 14.3684 17.142L14.3651 17.1389C14.3472 17.1214 14.3304 17.1027 14.315 17.0829C14.307 17.0726 14.2993 17.0621 14.292 17.0513C14.2897 17.0478 14.2874 17.0443 14.2851 17.0408C14.2823 17.0364 14.2796 17.032 14.2769 17.0275L14.276 17.0261L14.2751 17.0246C14.2689 17.0141 14.263 17.0034 14.2574 16.9925L14.2561 16.9901L14.2553 16.9882C14.2478 16.9732 14.2409 16.9578 14.2347 16.942L14.2337 16.9394C14.2323 16.9357 14.2309 16.932 14.2296 16.9283C14.2284 16.925 14.2272 16.9216 14.2261 16.9183L14.2234 16.9106L14.2227 16.9082L14.2209 16.9031L14.2198 16.9001L14.2183 16.8954L14.2172 16.8923L14.2157 16.8877L14.2147 16.8846L14.2131 16.8799L14.2121 16.8768L14.2105 16.8719L14.2096 16.8692L14.2076 16.863L14.2071 16.8615L14.2046 16.8538L14.2039 16.8517L14.2021 16.8462L14.2012 16.8433L14.1996 16.8384L14.1987 16.8353L14.1972 16.8306L14.1962 16.8275L14.1947 16.8228L14.1938 16.8196L14.1923 16.8148L14.1914 16.8119L14.1896 16.8064L14.1889 16.8042L14.1866 16.7964L14.1861 16.7949L14.1843 16.7886L14.1834 16.7858L14.1819 16.7808L14.181 16.7777L14.1795 16.773L14.1786 16.7697L14.1772 16.7651L14.1763 16.7619L14.1749 16.7571L14.174 16.754L14.1725 16.7488L14.1717 16.7462L14.1695 16.7385L14.1694 16.7384L14.1672 16.7305L14.1665 16.7279L14.1649 16.7226L14.1642 16.7196L14.1627 16.7147L14.1619 16.7115L14.1606 16.7067L14.1597 16.7035L14.1584 16.6988L14.1575 16.6956L14.1561 16.6905L14.1554 16.6876L14.1536 16.6814L14.1532 16.6797L14.1511 16.6718L14.1504 16.6695L14.149 16.6638L14.1482 16.6608L14.1468 16.6558L14.146 16.6525L14.1447 16.6478L14.1439 16.6445L14.1427 16.6397L14.1418 16.6365L14.1406 16.6315L14.1398 16.6284L14.1383 16.6228L14.1378 16.6204L14.1358 16.6123L14.1353 16.6107L14.1338 16.6043L14.1331 16.6014L14.1318 16.5962L14.131 16.593L14.1298 16.5882L14.129 16.5847L14.1279 16.58L14.1271 16.5766L14.1258 16.5717L14.1251 16.5685L14.1239 16.5631L14.1232 16.5603L14.1215 16.5528L14.1213 16.5521L14.1194 16.5441L14.1188 16.5412L14.1176 16.536L14.1169 16.5326L14.1157 16.5277L14.115 16.5243L14.1139 16.5195L14.1131 16.516L14.1121 16.5112L14.1114 16.5078L14.1102 16.5027L14.1095 16.4995L14.1082 16.4935L14.1078 16.4913L14.106 16.4832L14.1055 16.4805L14.1042 16.4749L14.1035 16.4716L14.1026 16.4666L14.1018 16.4631L14.1008 16.4582L14.1001 16.4546L14.0991 16.4499L14.0984 16.4463L14.0974 16.4414L14.0967 16.4379L14.0956 16.4326L14.095 16.4296L14.0934 16.4214L14.093 16.419L14.0919 16.4131L14.0912 16.4096L14.0902 16.4046L14.0895 16.401L14.0886 16.3963L14.0879 16.3924L14.087 16.3878L14.0863 16.384L14.0854 16.3793L14.0847 16.3756L14.0839 16.3706L14.0832 16.367L14.0821 16.3609L14.0817 16.3587L14.0814 16.357L14.0803 16.3504L14.0796 16.3467L14.0788 16.3419L14.0781 16.338L14.0773 16.3334L14.0766 16.3294L14.0758 16.3249L14.0751 16.3208L14.0744 16.3164L14.0737 16.3122L14.0729 16.3077L14.0723 16.3037L14.0715 16.2988L14.0709 16.2951L14.0695 16.2869L14.0688 16.2829L14.0681 16.2783L14.0674 16.274L14.0668 16.2697L14.0661 16.2653L14.0654 16.2611L14.0648 16.2567L14.0641 16.2525L14.0634 16.248L14.0628 16.2439L14.0621 16.2393L14.0615 16.2353L14.0608 16.2306L14.0603 16.2269L14.0596 16.2224L14.0589 16.2176L14.0584 16.2138L14.0577 16.209L14.0572 16.2051L14.0565 16.2003L14.0559 16.1964L14.0552 16.1916L14.0548 16.1877L14.0541 16.1828L14.0536 16.1791L14.0528 16.174L14.0524 16.1706L14.0517 16.1653L14.0514 16.163L14.0506 16.1568L14.0497 16.1496L14.0495 16.1485L14.0488 16.1427L14.0484 16.1397L14.0478 16.1342L14.0473 16.1309L14.0466 16.1254L14.0463 16.1221L14.0456 16.1166L14.0452 16.1134L14.0445 16.1077L14.0442 16.1049L14.0434 16.0988L14.0433 16.0973L14.0424 16.0902C14.0421 16.0874 14.0418 16.0846 14.0415 16.0818L14.0406 16.0746L14.0405 16.0732L14.0398 16.0667L14.0396 16.0643L14.0389 16.058L14.0386 16.0555L14.0379 16.0492L14.0377 16.0467L14.0369 16.0402L14.0368 16.0382L14.0361 16.0313L14.036 16.0306C14.0348 16.0196 14.0338 16.0087 14.0327 15.9976L14.0326 15.9969L14.0319 15.9894L14.0318 15.9879L14.0312 15.9806L14.031 15.9791L14.0304 15.9716L14.0302 15.9705Z" fill="#FFC2BA"/>
</g>
<g id="Group_11">
<path id="Vector_15" fill-rule="evenodd" clip-rule="evenodd" d="M9.25021 15.7752C9.27218 16.2128 9.34228 16.5852 9.46035 16.9289C9.53756 17.156 9.75077 17.3086 9.99059 17.3086C9.99059 17.3089 9.99059 17.3089 9.99059 17.3089C10.1926 17.3089 10.3748 17.1873 10.4523 17.0007C10.5865 16.6784 10.6995 16.2826 10.7804 15.7752H9.25021Z" fill="#FFC3BB"/>
<path id="Vector_16" fill-rule="evenodd" clip-rule="evenodd" d="M9.25338 15.8326C9.25223 15.8136 9.25118 15.7945 9.25021 15.7752H10.7804C10.7731 15.8212 10.7655 15.8662 10.7577 15.9104L10.5076 15.9062C10.4613 16.0546 10.181 16.9508 10.0434 17.0948C9.93068 17.2127 9.87209 17.2519 9.81393 17.2801C9.65247 17.2264 9.52061 17.1007 9.46219 16.9342L9.4621 16.9341L9.4614 16.9319L9.46035 16.9289C9.44286 16.878 9.42644 16.8265 9.41106 16.7742C9.40895 16.7672 9.40693 16.7601 9.40491 16.753C9.39929 16.7337 9.39393 16.7142 9.38857 16.6945C9.38752 16.6904 9.38638 16.6862 9.38524 16.682C9.37909 16.6587 9.37302 16.6352 9.36723 16.6115C9.36231 16.5915 9.35748 16.5713 9.35291 16.551C9.34641 16.5228 9.34026 16.4943 9.33437 16.4655C9.33024 16.4454 9.32629 16.425 9.32242 16.4045C9.32084 16.3958 9.31917 16.3871 9.31759 16.3783L9.31601 16.3694C9.31373 16.3566 9.31144 16.3438 9.30934 16.3309C9.30538 16.3076 9.3016 16.2841 9.298 16.2604L9.2966 16.2511C9.29414 16.2351 9.29185 16.219 9.28957 16.2027L9.2886 16.1955L9.28834 16.1934C9.28043 16.135 9.27349 16.0755 9.26761 16.0147L9.26673 16.005L9.26655 16.0034C9.26488 15.9854 9.26322 15.9673 9.26172 15.949C9.25856 15.9107 9.25575 15.872 9.25338 15.8326Z" fill="#F27F71"/>
</g>
<g id="Group_12">
<path id="Vector_17" fill-rule="evenodd" clip-rule="evenodd" d="M16.5615 11.6764C16.6267 11.6581 16.6803 11.6415 16.6936 11.6332C16.8503 11.5357 16.9826 11.3746 17.0528 11.1919C17.1206 11.0155 17.1376 10.8198 17.0553 10.6466C16.9565 10.7886 16.7999 10.8851 16.6572 10.8964C16.4981 10.909 16.3453 10.8312 16.2685 10.6062C16.178 10.3411 16.3543 10.1299 16.6175 10.077C16.7183 10.0568 16.8336 10.0628 16.9481 10.1037C16.9411 10.0354 16.9241 9.96856 16.8993 9.90422C16.8337 9.73463 16.7172 9.58161 16.5789 9.46329C16.5435 9.43478 16.5379 9.38292 16.5664 9.34753C16.5949 9.31215 16.6468 9.30656 16.6822 9.33507C16.8511 9.46311 16.9955 9.63413 17.0834 9.82674C17.1418 9.9549 17.174 10.0927 17.1722 10.2351C17.2453 10.2976 17.3129 10.3793 17.3702 10.4829C17.5137 10.7423 17.516 11.0451 17.4274 11.3233C17.3403 11.5971 17.1577 11.8425 16.9366 11.9989C16.9089 12.0186 16.8017 12.0674 16.6773 12.115C16.6924 12.1889 16.7063 12.2659 16.7193 12.3463C16.96 13.8455 16.9506 15.2461 16.5079 16.6585C16.3824 17.0566 16.0131 17.3275 15.5958 17.3275C15.5957 17.3276 15.5957 17.3276 15.5957 17.3276C15.2251 17.3276 14.8955 17.0913 14.7768 16.74C14.6339 16.3179 14.4665 15.8229 14.4665 15.8229H10.4089C10.4089 15.8229 10.1999 16.414 10.044 16.8553C9.94391 17.1383 9.67633 17.3276 9.37616 17.3276H9.37607C9.00244 17.3276 8.67809 17.07 8.59346 16.706C8.49713 16.2918 8.3881 15.8229 8.3881 15.8229H7.16744C7.02575 15.8229 6.89288 15.7401 6.84272 15.6076C6.68652 15.195 6.37549 14.1333 6.8727 12.8942C6.90921 12.8033 7.00371 12.7489 7.10177 12.7489C7.42697 12.7487 8.14534 12.7487 8.14534 12.7487C8.14534 12.7487 8.25395 11.0943 9.75214 10.2219L9.34462 9.44408C9.34462 9.44408 10.0261 9.17562 10.6293 9.95156C12.067 9.61325 13.3348 9.57688 14.9494 10.0559C15.3273 10.1674 15.6691 10.3765 15.9405 10.6622C16.1294 10.8607 16.2782 11.0595 16.3962 11.285C16.4598 11.4064 16.5143 11.5355 16.5615 11.6764ZM16.8954 10.4469C16.8474 10.4129 16.7963 10.3932 16.7459 10.3869C16.6326 10.3727 16.512 10.4158 16.5415 10.522C16.5668 10.6136 16.6275 10.6442 16.6926 10.6241C16.7728 10.5992 16.8522 10.5329 16.8954 10.4469Z" fill="#FFC3BB"/>
</g>
<path id="Vector_18" fill-rule="evenodd" clip-rule="evenodd" d="M10.3802 15.904L10.511 15.5015C10.5174 15.4819 10.5368 15.4695 10.5572 15.4721C10.5776 15.4746 10.5934 15.4913 10.5948 15.5119L10.6163 15.823H10.4089L10.3802 15.904ZM14.2186 15.823L14.2864 15.4864C14.2895 15.4715 14.3021 15.4604 14.3174 15.4594C14.3326 15.4584 14.3466 15.4678 14.3516 15.4823C14.4014 15.6293 14.4796 15.8605 14.4796 15.8605L14.4793 15.8605L14.4666 15.823H14.2186ZM15.8007 13.0231C15.8007 11.8874 14.9271 10.9427 13.7947 10.8541C12.9682 10.7887 12.1466 10.7893 11.3298 10.8539C10.1973 10.9423 9.32351 11.887 9.32351 13.0229C9.32342 13.0229 9.32342 13.0229 9.32342 13.0229C9.32342 14.2 10.2594 15.164 11.4361 15.1986C12.1895 15.221 12.9402 15.221 13.6881 15.1989C14.8648 15.1643 15.8007 14.2003 15.8007 13.0231ZM7.6378 12.7524C7.70771 12.9081 7.77192 13.1194 7.81591 13.4063C7.82327 13.4542 7.79032 13.4991 7.7424 13.5064C7.69447 13.5138 7.6496 13.4808 7.64225 13.433C7.5929 13.1112 7.51921 12.8959 7.44342 12.7525L7.58943 12.7524H7.6378ZM7.98032 12.7524C8.03558 12.872 8.08534 13.0244 8.12178 13.2187C8.13071 13.2664 8.09928 13.3123 8.05163 13.3212C8.00398 13.3302 7.95803 13.2987 7.9491 13.2511C7.90649 13.0239 7.84582 12.8643 7.78321 12.7524H7.98032ZM16.6772 12.1151C16.6924 12.1889 16.5489 11.6386 16.5616 11.6765C16.6266 11.6582 16.6803 11.6416 16.6937 11.6333C16.7032 11.6273 16.7128 11.6211 16.7222 11.6146C16.7582 11.7312 16.8001 11.8805 16.837 12.0494C16.7922 12.0693 16.7366 12.0923 16.6772 12.1151ZM17.0553 10.6467C17.0392 10.6823 17.1836 10.4416 17.1723 10.2351C17.2282 10.283 17.281 10.3422 17.3284 10.4138C17.3052 10.5261 17.2545 10.6711 17.145 10.8126C17.135 10.8255 17.1221 10.8349 17.1079 10.8405C17.1017 10.7743 17.0849 10.709 17.0553 10.6467ZM16.9481 10.1038C16.9632 10.2893 16.8834 10.4709 16.8955 10.447C16.8475 10.413 16.7964 10.3932 16.7459 10.3869C16.7416 10.3864 16.7372 10.3859 16.7329 10.3855C16.8023 10.271 16.7912 10.1468 16.7722 10.0671C16.8297 10.0708 16.889 10.0826 16.9481 10.1038ZM9.75115 10.2225L9.81607 10.3522C9.83777 10.3956 9.8202 10.4484 9.77689 10.4701C9.7335 10.4918 9.6807 10.4742 9.659 10.4309L9.6012 10.3155C9.6496 10.2836 9.69959 10.2526 9.75115 10.2225ZM10.6903 10.053C10.6903 10.053 10.6049 9.92018 10.6294 9.9516C10.6883 9.93773 10.747 9.92437 10.8055 9.9115L10.8339 9.95164C10.8618 9.99124 10.8523 10.0461 10.8128 10.0741C10.7732 10.102 10.7183 10.0926 10.6903 10.053Z" fill="#F27F71"/>
<g id="Group_13">
<g id="Group_14">
<path id="Vector_19" d="M7.05373 15.8266C7.3131 15.8266 7.52336 15.1384 7.52336 14.2894C7.52336 13.4405 7.3131 12.7523 7.05373 12.7523C6.79437 12.7523 6.58411 13.4405 6.58411 14.2894C6.58411 15.1384 6.79437 15.8266 7.05373 15.8266Z" fill="#F27F71"/>
</g>
<g id="Group_15">
<path id="Vector_20" fill-rule="evenodd" clip-rule="evenodd" d="M6.80264 13.6039V14.9751C6.80264 15.0235 6.84201 15.0629 6.89049 15.0629C6.93897 15.0629 6.97834 15.0235 6.97834 14.9751V13.6039C6.97834 13.5554 6.93897 13.516 6.89049 13.516C6.84201 13.516 6.80264 13.5554 6.80264 13.6039Z" fill="#D7441E"/>
</g>
<g id="Group_16">
<path id="Vector_21" fill-rule="evenodd" clip-rule="evenodd" d="M7.12912 13.6039V14.9751C7.12912 15.0235 7.16848 15.0629 7.21697 15.0629C7.26545 15.0629 7.30482 15.0235 7.30482 14.9751V13.6039C7.30482 13.5554 7.26545 13.516 7.21697 13.516C7.16848 13.516 7.12912 13.5554 7.12912 13.6039Z" fill="#D7441E"/>
</g>
</g>
<g id="Group_17">
<path id="Vector_22" fill-rule="evenodd" clip-rule="evenodd" d="M8.47872 12.3543C8.47683 12.404 8.47116 12.5106 8.49726 12.6067C8.52998 12.727 8.60669 12.8311 8.76953 12.8403C8.83662 12.8441 8.92866 12.8354 9.00371 12.7628C9.06791 12.7006 9.12553 12.5833 9.12099 12.3559L8.94529 12.3594C8.94836 12.5121 8.92462 12.5948 8.88151 12.6366C8.84927 12.6677 8.80823 12.6665 8.77942 12.6649C8.70975 12.661 8.68081 12.6121 8.66681 12.5606C8.64619 12.4847 8.65278 12.4003 8.65429 12.361L8.47872 12.3543Z" fill="black"/>
</g>
<g id="Group_18">
<path id="Vector_23" d="M14.2738 10.1883H10.9984L11.296 10.5754H14.5714L14.2738 10.1883Z" fill="black"/>
</g>
</g>
<g id="BILL">
<g id="Group_19">
<path id="Vector_24" fill-rule="evenodd" clip-rule="evenodd" d="M11.296 10.8567C11.3073 10.8557 11.3185 10.8547 11.3297 10.8538C12.1465 10.7892 12.9681 10.7886 13.7946 10.854C13.9611 10.867 14.1219 10.8986 14.2752 10.9465V12.7816H11.296V10.8567Z" fill="#82B5B2"/>
<path id="Vector_25" fill-rule="evenodd" clip-rule="evenodd" d="M11.831 10.8222C12.4378 10.7938 13.0471 10.8007 13.6592 10.8439C13.5049 11.1929 13.1556 11.4368 12.7497 11.4368C12.3355 11.4368 11.9802 11.1828 11.831 10.8222Z" fill="#A8CFCC"/>
<path id="Vector_26" fill-rule="evenodd" clip-rule="evenodd" d="M12.2478 12.7816V11.9257C12.2478 11.8237 12.3306 11.7409 12.4326 11.7409C12.5347 11.7409 12.6174 11.8237 12.6174 11.9257V12.7816H12.2478ZM12.8651 12.7816V12.144C12.8651 12.042 12.9479 11.9591 13.0499 11.9591C13.1519 11.9591 13.2347 12.042 13.2347 12.144V12.7816H12.8651Z" fill="#A8CFCC"/>
</g>
<g id="Group_20">
<path id="Vector_27" d="M14.2752 7.7916H11.296V10.3651H14.2752V7.7916Z" fill="#A8CFCC"/>
<path id="Vector_28" fill-rule="evenodd" clip-rule="evenodd" d="M11.7589 10.3651C11.7987 9.853 12.2274 9.44925 12.7497 9.44925C13.2719 9.44925 13.7006 9.853 13.7404 10.3651H11.7589Z" fill="#82B5B2"/>
<path id="Vector_29" fill-rule="evenodd" clip-rule="evenodd" d="M13.3421 7.7916V8.5208C13.3421 8.62279 13.2594 8.70561 13.1574 8.70561C13.0554 8.70561 12.9725 8.62279 12.9725 8.5208V7.7916H13.3421ZM12.7249 7.7916V8.30257C12.7249 8.40457 12.6421 8.48738 12.5401 8.48738C12.4381 8.48738 12.3552 8.40457 12.3552 8.30257V7.7916H12.7249Z" fill="#82B5B2"/>
</g>
</g>
<g id="COINS">
<g id="Group_21">
<g id="Group_22">
<path id="Vector_30" d="M11.2991 13.6968C11.8174 13.6968 12.2377 13.2808 12.2377 12.7677C12.2377 12.2545 11.8174 11.8385 11.2991 11.8385C10.7807 11.8385 10.3605 12.2545 10.3605 12.7677C10.3605 13.2808 10.7807 13.6968 11.2991 13.6968Z" fill="#FFCF84"/>
</g>
<g id="Group_23">
<path id="Vector_31" fill-rule="evenodd" clip-rule="evenodd" d="M11.2991 12.0429C11.7031 12.0429 12.0312 12.3677 12.0312 12.7677C12.0312 13.1677 11.7031 13.4924 11.2991 13.4924C11.2826 13.4924 11.2693 13.5056 11.2693 13.5219C11.2693 13.5381 11.2826 13.5513 11.2991 13.5513C11.7359 13.5513 12.0906 13.2002 12.0906 12.7677C12.0906 12.3352 11.7359 11.9841 11.2991 11.9841C11.2826 11.9841 11.2693 11.9973 11.2693 12.0135C11.2693 12.0298 11.2826 12.0429 11.2991 12.0429Z" fill="#FD9909"/>
</g>
<g id="Group_24">
<path id="Vector_32" fill-rule="evenodd" clip-rule="evenodd" d="M11.2991 13.4924C10.895 13.4924 10.5669 13.1677 10.5669 12.7677C10.5669 12.3677 10.895 12.0429 11.2991 12.0429C11.3155 12.0429 11.3288 12.0298 11.3288 12.0135C11.3288 11.9973 11.3155 11.9841 11.2991 11.9841C10.8622 11.9841 10.5075 12.3352 10.5075 12.7677C10.5075 13.2002 10.8622 13.5513 11.2991 13.5513C11.3155 13.5513 11.3288 13.5381 11.3288 13.5219C11.3288 13.5056 11.3155 13.4924 11.2991 13.4924Z" fill="#FD9909"/>
</g>
<path id="Vector_33" fill-rule="evenodd" clip-rule="evenodd" d="M11.4121 13.6902L11.3929 13.5371C11.3909 13.521 11.4025 13.5062 11.4188 13.5042C11.4351 13.5022 11.4499 13.5137 11.4519 13.5298L11.4709 13.6813C11.4515 13.6848 11.4319 13.6878 11.4121 13.6902ZM11.5876 13.652L11.5344 13.4967C11.5292 13.4813 11.5375 13.4646 11.5531 13.4594C11.5686 13.4542 11.5855 13.4624 11.5908 13.4778L11.6436 13.6322C11.6252 13.6393 11.6066 13.646 11.5876 13.652ZM10.7817 13.5428L10.8644 13.4083C10.8729 13.3944 10.8912 13.39 10.9052 13.3984C10.9192 13.4069 10.9237 13.425 10.9152 13.4389L10.8323 13.5738C10.8151 13.564 10.7982 13.5537 10.7817 13.5428ZM12.0713 13.2956L11.9347 13.1955C11.9216 13.1859 11.9188 13.1674 11.9286 13.1544C11.9383 13.1413 11.9569 13.1386 11.9701 13.1482L12.1037 13.2461C12.0935 13.263 12.0826 13.2795 12.0713 13.2956ZM10.4071 13.0573L10.5676 12.9858C10.5825 12.9791 10.6002 12.9857 10.6069 13.0005C10.6136 13.0154 10.607 13.0328 10.592 13.0395L10.4275 13.1128C10.4201 13.0946 10.4133 13.0761 10.4071 13.0573ZM12.2099 12.5423C12.2146 12.5613 12.2188 12.5805 12.2224 12.5999L12.0642 12.6368C12.0482 12.6406 12.0322 12.6307 12.0284 12.6149C12.0246 12.5991 12.0345 12.5833 12.0505 12.5795L12.2099 12.5423ZM10.5235 12.2445L10.6649 12.336C10.6787 12.3449 10.6825 12.3632 10.6736 12.3768C10.6646 12.3904 10.6462 12.3942 10.6324 12.3853L10.4916 12.2941C10.5017 12.2772 10.5124 12.2606 10.5235 12.2445ZM10.6158 12.1309L10.7308 12.2146C10.744 12.2242 10.7469 12.2427 10.7371 12.2558C10.7275 12.2689 10.7088 12.2717 10.6956 12.262L10.5763 12.1752C10.589 12.16 10.6022 12.1452 10.6158 12.1309ZM11.8416 12.0096C11.8578 12.0209 11.8736 12.0328 11.889 12.0452L11.7862 12.1735C11.7759 12.1862 11.7572 12.1884 11.7444 12.1783C11.7315 12.1682 11.7294 12.1496 11.7396 12.1369L11.8416 12.0096ZM11.6823 11.9194C11.7005 11.9274 11.7183 11.9361 11.7358 11.9452L11.6633 12.0798C11.6556 12.0941 11.6376 12.0996 11.623 12.0919C11.6086 12.0843 11.6031 12.0664 11.6109 12.0521L11.6823 11.9194ZM11.0886 11.862L11.1305 12.0098C11.1349 12.0254 11.1257 12.0417 11.1099 12.0461C11.094 12.0505 11.0776 12.0413 11.0732 12.0257L11.0311 11.877C11.05 11.8714 11.0692 11.8664 11.0886 11.862Z" fill="#FD9909"/>
</g>
<g id="Group_25">
<g id="Group_26">
<path id="Vector_34" d="M13.7955 14.8479C14.3139 14.8479 14.7341 14.4319 14.7341 13.9187C14.7341 13.4056 14.3139 12.9896 13.7955 12.9896C13.2772 12.9896 12.8569 13.4056 12.8569 13.9187C12.8569 14.4319 13.2772 14.8479 13.7955 14.8479Z" fill="#FFCF84"/>
</g>
<g id="Group_27">
<path id="Vector_35" fill-rule="evenodd" clip-rule="evenodd" d="M13.7955 13.194C14.1996 13.194 14.5276 13.5188 14.5276 13.9188C14.5276 14.3188 14.1996 14.6435 13.7955 14.6435C13.7791 14.6435 13.7658 14.6567 13.7658 14.673C13.7658 14.6892 13.7791 14.7024 13.7955 14.7024C14.2324 14.7024 14.5871 14.3513 14.5871 13.9188C14.5871 13.4863 14.2324 13.1352 13.7955 13.1352C13.7791 13.1352 13.7658 13.1483 13.7658 13.1646C13.7658 13.1808 13.7791 13.194 13.7955 13.194Z" fill="#FD9909"/>
</g>
<g id="Group_28">
<path id="Vector_36" fill-rule="evenodd" clip-rule="evenodd" d="M13.7955 14.6435C13.3915 14.6435 13.0634 14.3188 13.0634 13.9188C13.0634 13.5188 13.3915 13.194 13.7955 13.194C13.812 13.194 13.8253 13.1808 13.8253 13.1646C13.8253 13.1483 13.812 13.1352 13.7955 13.1352C13.3586 13.1352 13.004 13.4863 13.004 13.9188C13.004 14.3513 13.3586 14.7024 13.7955 14.7024C13.812 14.7024 13.8253 14.6892 13.8253 14.673C13.8253 14.6567 13.812 14.6435 13.7955 14.6435Z" fill="#FD9909"/>
</g>
<path id="Vector_37" fill-rule="evenodd" clip-rule="evenodd" d="M13.9086 14.8413L13.8893 14.6882C13.8873 14.6721 13.8989 14.6573 13.9152 14.6553C13.9315 14.6533 13.9463 14.6648 13.9484 14.6809L13.9674 14.8324C13.948 14.8359 13.9284 14.8389 13.9086 14.8413ZM14.0841 14.8031L14.0309 14.6478C14.0257 14.6324 14.034 14.6157 14.0496 14.6105C14.0651 14.6053 14.082 14.6135 14.0872 14.6289L14.1401 14.7832C14.1217 14.7904 14.103 14.7971 14.0841 14.8031ZM13.2782 14.6939L13.3608 14.5594C13.3693 14.5455 13.3876 14.5411 13.4017 14.5495C13.4157 14.558 13.4202 14.5761 13.4117 14.59L13.3288 14.7249C13.3115 14.7151 13.2946 14.7047 13.2782 14.6939ZM14.5678 14.4467L14.4312 14.3466C14.4181 14.337 14.4153 14.3185 14.425 14.3055C14.4348 14.2924 14.4534 14.2897 14.4666 14.2993L14.6002 14.3972C14.5899 14.414 14.5791 14.4306 14.5678 14.4467ZM12.9035 14.2084L13.064 14.1369C13.079 14.1302 13.0966 14.1368 13.1034 14.1516C13.1101 14.1665 13.1034 14.1839 13.0884 14.1906L12.9239 14.2639C12.9166 14.2457 12.9097 14.2272 12.9035 14.2084ZM14.7063 13.6934C14.7111 13.7124 14.7153 13.7316 14.7189 13.751L14.5606 13.7879C14.5447 13.7916 14.5286 13.7818 14.5249 13.766C14.5211 13.7502 14.531 13.7343 14.5469 13.7306L14.7063 13.6934ZM13.02 13.3956L13.1614 13.4871C13.1751 13.496 13.179 13.5143 13.17 13.5279C13.161 13.5415 13.1426 13.5453 13.1289 13.5364L12.988 13.4452C12.9982 13.4283 13.0089 13.4117 13.02 13.3956ZM13.1123 13.282L13.2273 13.3657C13.2405 13.3753 13.2434 13.3938 13.2336 13.4069C13.2239 13.4199 13.2052 13.4228 13.192 13.4131L13.0728 13.3263C13.0855 13.3111 13.0987 13.2963 13.1123 13.282ZM14.3381 13.1607C14.3542 13.172 14.3701 13.1839 14.3855 13.1963L14.2826 13.3246C14.2724 13.3373 14.2537 13.3395 14.2408 13.3294C14.228 13.3193 14.2258 13.3007 14.236 13.288L14.3381 13.1607ZM14.1788 13.0705C14.1969 13.0785 14.2148 13.0871 14.2323 13.0963L14.1598 13.2309C14.152 13.2452 14.134 13.2506 14.1195 13.243C14.1051 13.2354 14.0996 13.2175 14.1073 13.2032L14.1788 13.0705ZM13.5851 13.0131L13.627 13.1609C13.6314 13.1765 13.6221 13.1928 13.6063 13.1972C13.5905 13.2016 13.5741 13.1924 13.5697 13.1768L13.5276 13.0281C13.5465 13.0225 13.5656 13.0175 13.5851 13.0131Z" fill="#FD9909"/>
</g>
<g id="Group_29">
<g id="Group_30">
<g id="Group_31">
<path id="Vector_38" d="M9.26816 7.78672C9.78653 7.78672 10.2068 7.37072 10.2068 6.85756C10.2068 6.3444 9.78653 5.92841 9.26816 5.92841C8.74978 5.92841 8.32956 6.3444 8.32956 6.85756C8.32956 7.37072 8.74978 7.78672 9.26816 7.78672Z" fill="#FFCF84"/>
</g>
<g id="Group_32">
<path id="Vector_39" fill-rule="evenodd" clip-rule="evenodd" d="M9.26814 6.13285C9.67218 6.13285 10.0002 6.45759 10.0002 6.85759C10.0002 7.25759 9.67218 7.58233 9.26814 7.58233C9.25173 7.58233 9.2384 7.59552 9.2384 7.61177C9.2384 7.62802 9.25173 7.64121 9.26814 7.64121C9.70501 7.64121 10.0597 7.29008 10.0597 6.85759C10.0597 6.4251 9.70501 6.07397 9.26814 6.07397C9.25173 6.07397 9.2384 6.08716 9.2384 6.10341C9.2384 6.11966 9.25173 6.13285 9.26814 6.13285Z" fill="#FD9909"/>
</g>
<g id="Group_33">
<path id="Vector_40" fill-rule="evenodd" clip-rule="evenodd" d="M9.26817 7.58233C8.86408 7.58233 8.53602 7.25759 8.53602 6.85759C8.53602 6.45759 8.86408 6.13285 9.26817 6.13285C9.28458 6.13285 9.2979 6.11966 9.2979 6.10341C9.2979 6.08716 9.28458 6.07397 9.26817 6.07397C8.83125 6.07397 8.47659 6.4251 8.47659 6.85759C8.47659 7.29008 8.83125 7.64121 9.26817 7.64121C9.28458 7.64121 9.2979 7.62802 9.2979 7.61177C9.2979 7.59552 9.28458 7.58233 9.26817 7.58233Z" fill="#FD9909"/>
</g>
<path id="Vector_41" fill-rule="evenodd" clip-rule="evenodd" d="M9.38118 7.78007L9.36197 7.62699C9.35995 7.61087 9.37155 7.59615 9.38784 7.59415C9.40414 7.59214 9.41895 7.60361 9.42103 7.61973L9.44 7.77119C9.42061 7.77475 9.40099 7.77772 9.38118 7.78007ZM9.55669 7.74195L9.50352 7.58662C9.49828 7.57123 9.50661 7.55451 9.52219 7.5493C9.53771 7.54408 9.5546 7.55234 9.55984 7.56772L9.61271 7.72206C9.59433 7.72926 9.57566 7.73589 9.55669 7.74195ZM8.75078 7.63275L8.83344 7.49818C8.84195 7.4843 8.86026 7.47988 8.8743 7.48833C8.88834 7.49677 8.8928 7.51489 8.88429 7.52877L8.80139 7.6637C8.78414 7.6539 8.76725 7.64357 8.75078 7.63275ZM10.0404 7.38553L9.90383 7.28546C9.89068 7.27579 9.88789 7.25735 9.89764 7.24428C9.90739 7.23122 9.92601 7.22847 9.93921 7.23813L10.0728 7.33599C10.0626 7.35286 10.0517 7.36939 10.0404 7.38553ZM8.37616 7.1472L8.53668 7.07569C8.5516 7.06902 8.56927 7.07564 8.57599 7.09045C8.58271 7.10527 8.57605 7.12271 8.56106 7.12938L8.39656 7.20268C8.38918 7.18447 8.38234 7.16598 8.37616 7.1472ZM10.1789 6.63223C10.1837 6.65119 10.1879 6.67039 10.1915 6.68979L10.0332 6.72673C10.0173 6.73046 10.0012 6.72065 9.9975 6.70484C9.99369 6.68903 10.0036 6.67316 10.0196 6.66943L10.1789 6.63223ZM8.49261 6.33437L8.63403 6.42594C8.64777 6.43484 8.65164 6.4531 8.64265 6.4667C8.63367 6.48029 8.61524 6.48411 8.6015 6.47521L8.46067 6.38401C8.47078 6.3671 8.48148 6.35055 8.49261 6.33437ZM8.58491 6.22079L8.69993 6.30452C8.71313 6.31415 8.71598 6.33259 8.70623 6.34567C8.69654 6.35876 8.67786 6.36157 8.66466 6.35194L8.54542 6.26508C8.55809 6.24991 8.57129 6.23514 8.58491 6.22079ZM9.81069 6.09948C9.82687 6.11085 9.84269 6.12272 9.85809 6.13507L9.75526 6.26341C9.74504 6.27614 9.7263 6.27827 9.71346 6.26818C9.70061 6.25808 9.69847 6.23955 9.70864 6.22682L9.81069 6.09948ZM9.65143 6.00928C9.66956 6.01734 9.68741 6.02596 9.70489 6.03508L9.63239 6.1697C9.62466 6.18403 9.60664 6.18946 9.59213 6.18182C9.57768 6.17417 9.57221 6.15633 9.57994 6.14199L9.65143 6.00928ZM9.05771 5.95193L9.09958 6.09971C9.10398 6.11535 9.09476 6.13161 9.07894 6.136C9.06313 6.14039 9.04671 6.13125 9.04231 6.1156L9.0002 5.96693C9.01912 5.96135 9.03827 5.95634 9.05771 5.95193Z" fill="#FD9909"/>
</g>
<g id="Group_34">
<g id="Group_35">
<path id="Vector_42" d="M6.09888 11.2044C6.61725 11.2044 7.03748 10.7884 7.03748 10.2752C7.03748 9.76207 6.61725 9.34607 6.09888 9.34607C5.5805 9.34607 5.16028 9.76207 5.16028 10.2752C5.16028 10.7884 5.5805 11.2044 6.09888 11.2044Z" fill="#FFCF84"/>
</g>
<g id="Group_36">
<path id="Vector_43" fill-rule="evenodd" clip-rule="evenodd" d="M6.09886 9.55051C6.5029 9.55051 6.83096 9.87526 6.83096 10.2753C6.83096 10.6753 6.5029 11 6.09886 11C6.08245 11 6.06912 11.0132 6.06912 11.0294C6.06912 11.0457 6.08245 11.0589 6.09886 11.0589C6.53573 11.0589 6.89043 10.7077 6.89043 10.2753C6.89043 9.84276 6.53573 9.49164 6.09886 9.49164C6.08245 9.49164 6.06912 9.50483 6.06912 9.52107C6.06912 9.53732 6.08245 9.55051 6.09886 9.55051Z" fill="#FD9909"/>
</g>
<g id="Group_37">
<path id="Vector_44" fill-rule="evenodd" clip-rule="evenodd" d="M6.09889 11C5.6948 11 5.36674 10.6753 5.36674 10.2753C5.36674 9.87526 5.6948 9.55051 6.09889 9.55051C6.1153 9.55051 6.12862 9.53732 6.12862 9.52107C6.12862 9.50483 6.1153 9.49164 6.09889 9.49164C5.66197 9.49164 5.30731 9.84276 5.30731 10.2753C5.30731 10.7077 5.66197 11.0589 6.09889 11.0589C6.1153 11.0589 6.12862 11.0457 6.12862 11.0294C6.12862 11.0132 6.1153 11 6.09889 11Z" fill="#FD9909"/>
</g>
<path id="Vector_45" fill-rule="evenodd" clip-rule="evenodd" d="M6.2119 11.1977L6.19269 11.0447C6.19067 11.0285 6.20227 11.0138 6.21856 11.0118C6.23486 11.0098 6.24967 11.0213 6.25175 11.0374L6.27072 11.1888C6.25133 11.1924 6.23171 11.1954 6.2119 11.1977ZM6.38741 11.1596L6.33424 11.0043C6.329 10.9889 6.33733 10.9722 6.35291 10.967C6.36843 10.9617 6.38532 10.97 6.39056 10.9854L6.44343 11.1397C6.42505 11.1469 6.40638 11.1536 6.38741 11.1596ZM5.5815 11.0504L5.66416 10.9158C5.67267 10.902 5.69098 10.8975 5.70502 10.906C5.71905 10.9144 5.72351 10.9326 5.71501 10.9464L5.63211 11.0814C5.61486 11.0716 5.59797 11.0612 5.5815 11.0504ZM6.87115 10.8032L6.73455 10.7031C6.7214 10.6935 6.71861 10.675 6.72836 10.6619C6.73811 10.6489 6.75673 10.6461 6.76993 10.6558L6.90351 10.7537C6.89328 10.7705 6.88245 10.7871 6.87115 10.8032ZM5.20688 10.5649L5.36739 10.4934C5.38232 10.4867 5.39999 10.4933 5.40671 10.5081C5.41343 10.5229 5.40677 10.5404 5.39178 10.547L5.22728 10.6203C5.2199 10.6021 5.21306 10.5836 5.20688 10.5649ZM7.00966 10.0499C7.01442 10.0689 7.01865 10.0881 7.02221 10.1075L6.86396 10.1444C6.84802 10.1481 6.83196 10.1383 6.82821 10.1225C6.82441 10.1067 6.83434 10.0908 6.85028 10.0871L7.00966 10.0499ZM5.32333 9.75203L5.46475 9.84361C5.47849 9.8525 5.48235 9.87076 5.47337 9.88436C5.46439 9.89795 5.44596 9.90177 5.43222 9.89288L5.29139 9.80168C5.3015 9.78477 5.3122 9.76821 5.32333 9.75203ZM5.41563 9.63845L5.53065 9.72218C5.54385 9.73181 5.5467 9.75025 5.53695 9.76334C5.52726 9.77642 5.50858 9.77923 5.49538 9.76961L5.37614 9.68274C5.3888 9.66757 5.40201 9.6528 5.41563 9.63845ZM6.64141 9.51714C6.65759 9.52852 6.67341 9.54038 6.68881 9.55274L6.58598 9.68108C6.57575 9.69381 6.55702 9.69594 6.54417 9.68584C6.53133 9.67574 6.52919 9.65721 6.53936 9.64448L6.64141 9.51714ZM6.48215 9.42695C6.50028 9.43501 6.51813 9.44363 6.53561 9.45275L6.46311 9.58736C6.45538 9.6017 6.43736 9.60713 6.42285 9.59948C6.4084 9.59184 6.40293 9.57399 6.41066 9.55966L6.48215 9.42695ZM5.88843 9.3696L5.9303 9.51737C5.9347 9.53302 5.92548 9.54928 5.90966 9.55366C5.89384 9.55805 5.87743 9.54892 5.87303 9.53327L5.83092 9.38459C5.84983 9.37901 5.86898 9.37401 5.88843 9.3696Z" fill="#FD9909"/>
</g>
<g id="Group_38">
<g id="Group_39">
<path id="Vector_46" d="M18.9236 9.94791C19.442 9.94791 19.8622 9.53192 19.8622 9.01876C19.8622 8.5056 19.442 8.0896 18.9236 8.0896C18.4052 8.0896 17.985 8.5056 17.985 9.01876C17.985 9.53192 18.4052 9.94791 18.9236 9.94791Z" fill="#FFCF84"/>
</g>
<g id="Group_40">
<path id="Vector_47" fill-rule="evenodd" clip-rule="evenodd" d="M18.9236 8.29404C19.3276 8.29404 19.6557 8.61879 19.6557 9.01878C19.6557 9.41878 19.3276 9.74353 18.9236 9.74353C18.9072 9.74353 18.8938 9.75672 18.8938 9.77296C18.8938 9.78921 18.9072 9.8024 18.9236 9.8024C19.3604 9.8024 19.7151 9.45128 19.7151 9.01878C19.7151 8.58629 19.3604 8.23517 18.9236 8.23517C18.9072 8.23517 18.8938 8.24836 18.8938 8.26461C18.8938 8.28085 18.9072 8.29404 18.9236 8.29404Z" fill="#FD9909"/>
</g>
<g id="Group_41">
<path id="Vector_48" fill-rule="evenodd" clip-rule="evenodd" d="M18.9236 9.74353C18.5195 9.74353 18.1914 9.41878 18.1914 9.01878C18.1914 8.61879 18.5195 8.29404 18.9236 8.29404C18.94 8.29404 18.9533 8.28085 18.9533 8.26461C18.9533 8.24836 18.94 8.23517 18.9236 8.23517C18.4867 8.23517 18.132 8.58629 18.132 9.01878C18.132 9.45128 18.4867 9.8024 18.9236 9.8024C18.94 9.8024 18.9533 9.78921 18.9533 9.77296C18.9533 9.75672 18.94 9.74353 18.9236 9.74353Z" fill="#FD9909"/>
</g>
<path id="Vector_49" fill-rule="evenodd" clip-rule="evenodd" d="M19.0365 9.94126L19.0173 9.78819C19.0153 9.77206 19.0269 9.75735 19.0432 9.75534C19.0595 9.75334 19.0743 9.7648 19.0764 9.78093L19.0953 9.93238C19.0759 9.93594 19.0563 9.93891 19.0365 9.94126ZM19.212 9.90314L19.1589 9.74782C19.1536 9.73243 19.1619 9.7157 19.1775 9.71049C19.193 9.70527 19.2099 9.71353 19.2152 9.72892L19.268 9.88326C19.2497 9.89045 19.231 9.89709 19.212 9.90314ZM18.4061 9.79394L18.4888 9.65937C18.4973 9.64549 18.5156 9.64108 18.5296 9.64952C18.5437 9.65796 18.5481 9.67608 18.5396 9.68997L18.4567 9.82489C18.4395 9.81509 18.4226 9.80476 18.4061 9.79394ZM19.6958 9.54673L19.5592 9.44665C19.546 9.43698 19.5432 9.41854 19.553 9.40547C19.5627 9.39242 19.5813 9.38966 19.5945 9.39932L19.7281 9.49718C19.7179 9.51406 19.7071 9.53058 19.6958 9.54673ZM18.0315 9.3084L18.192 9.23688C18.2069 9.23021 18.2246 9.23683 18.2313 9.25164C18.238 9.26646 18.2314 9.2839 18.2164 9.29057L18.0519 9.36387C18.0445 9.34566 18.0377 9.32717 18.0315 9.3084ZM19.8343 8.79342C19.839 8.81239 19.8433 8.83158 19.8468 8.85098L19.6886 8.88792C19.6726 8.89166 19.6566 8.88184 19.6528 8.86603C19.649 8.85022 19.659 8.83435 19.6749 8.83062L19.8343 8.79342ZM18.1479 8.49556L18.2894 8.58714C18.3031 8.59603 18.307 8.61429 18.298 8.62789C18.289 8.64148 18.2706 8.6453 18.2568 8.63641L18.116 8.54521C18.1261 8.5283 18.1368 8.51174 18.1479 8.49556ZM18.2402 8.38198L18.3553 8.46571C18.3685 8.47534 18.3713 8.49379 18.3616 8.50687C18.3519 8.51995 18.3332 8.52276 18.32 8.51314L18.2008 8.42627C18.2134 8.4111 18.2266 8.39633 18.2402 8.38198ZM19.466 8.26067C19.4822 8.27205 19.498 8.28391 19.5134 8.29627L19.4106 8.42461C19.4004 8.43734 19.3816 8.43947 19.3688 8.42937C19.3559 8.41927 19.3538 8.40074 19.364 8.38801L19.466 8.26067ZM19.3068 8.17048C19.3249 8.17854 19.3427 8.18716 19.3602 8.19628L19.2877 8.33089C19.28 8.34523 19.262 8.35066 19.2475 8.34301C19.233 8.33537 19.2275 8.31752 19.2353 8.30319L19.3068 8.17048ZM18.713 8.11313L18.7549 8.2609C18.7593 8.27655 18.7501 8.29281 18.7343 8.29719C18.7185 8.30158 18.702 8.29245 18.6976 8.2768L18.6555 8.12812C18.6745 8.12254 18.6936 8.11754 18.713 8.11313Z" fill="#FD9909"/>
</g>
</g>
</g>
<g id="CROSSES">
<path id="Vector_50" fill-rule="evenodd" clip-rule="evenodd" d="M15.5762 7.88686V7.7403C15.5762 7.71606 15.5958 7.69638 15.6201 7.69638C15.6443 7.69638 15.664 7.71606 15.664 7.7403V7.88686H15.8105C15.8348 7.88686 15.8545 7.90654 15.8545 7.93079C15.8545 7.95502 15.8348 7.97471 15.8105 7.97471H15.664V8.12127C15.664 8.1455 15.6443 8.16519 15.6201 8.16519C15.5958 8.16519 15.5762 8.1455 15.5762 8.12127V7.97471H15.4295C15.4053 7.97471 15.3856 7.95502 15.3856 7.93079C15.3856 7.90654 15.4053 7.88686 15.4295 7.88686H15.5762Z" fill="#FD9500"/>
<g id="Group_42">
<path id="Vector_51" fill-rule="evenodd" clip-rule="evenodd" d="M8.41125 9.54937V9.40281C8.41125 9.37856 8.43092 9.35889 8.45517 9.35889C8.47942 9.35889 8.49909 9.37856 8.49909 9.40281V9.54937H8.64562C8.66987 9.54937 8.68955 9.56905 8.68955 9.59329C8.68955 9.61753 8.66987 9.63722 8.64562 9.63722H8.49909V9.78377C8.49909 9.80801 8.47942 9.8277 8.45517 9.8277C8.43092 9.8277 8.41125 9.80801 8.41125 9.78377V9.63722H8.26463C8.24038 9.63722 8.2207 9.61753 8.2207 9.59329C8.2207 9.56905 8.24038 9.54937 8.26463 9.54937H8.41125Z" fill="#FD9500"/>
</g>
<g id="Group_43">
<path id="Vector_52" fill-rule="evenodd" clip-rule="evenodd" d="M18.4446 11.052V10.9055C18.4446 10.8812 18.4643 10.8615 18.4885 10.8615C18.5128 10.8615 18.5324 10.8812 18.5324 10.9055V11.052H18.679C18.7032 11.052 18.7229 11.0717 18.7229 11.0959C18.7229 11.1202 18.7032 11.1399 18.679 11.1399H18.5324V11.2864C18.5324 11.3107 18.5128 11.3304 18.4885 11.3304C18.4643 11.3304 18.4446 11.3107 18.4446 11.2864V11.1399H18.298C18.2737 11.1399 18.2541 11.1202 18.2541 11.0959C18.2541 11.0717 18.2737 11.052 18.298 11.052H18.4446Z" fill="#FD9500"/>
</g>
</g>
</g>
</g>
</g>
</svg>
